<?xml version="1.0" encoding="utf-8"?>
<!-- Generator: Adobe Illustrator 22.1.0, SVG Export Plug-In . SVG Version: 6.00 Build 0)  -->
<svg version="1.1" xmlns="http://www.w3.org/2000/svg" xmlns:xlink="http://www.w3.org/1999/xlink" x="0px" y="0px"
	 viewBox="0 0 2272 1872" style="enable-background:new 0 0 2272 1872;" xml:space="preserve">
<style type="text/css">
	.st0{fill:none;stroke:#D5D3EA;stroke-miterlimit:10;}
	.st1{fill:#EAE9FF;}
	.st2{fill:#CFCFE8;}
	.st3{fill:#A9A9C4;}
	.st4{fill:#5F6193;}
	.st5{fill:#EF7C2E;}
	.st6{fill:#8889C2;}
	.st7{fill:#202B35;}
	.st8{fill:#FEC83D;}
	.st9{fill:#141B21;}
	.st10{fill:#575982;}
	.st11{fill:#151D23;}
	.st12{fill:#87522D;}
	.st13{fill:#B7372E;}
	.st14{fill:#EC5946;}
	.st15{fill:#543018;}
	.st16{fill:#66E2F2;}
	.st17{fill:#54C3CC;}
	.st18{fill:#4A9955;}
	.st19{fill:#367A3C;}
	.st20{fill:#2B83C5;}
	.st21{fill:#1B6C9E;}
	.st22{fill:#B23D34;}
	.st23{fill:#FFEECB;}
	.st24{fill:#AF5920;}
	.st25{fill:#F9AE90;}
	.st26{fill:#FFA96E;}
</style>
<g id="Background">
	<g id="Layer_1_1_">
	</g>
	<g id="Layer_2">
	</g>
	<g id="Layer_1_2_">
	</g>
	<g id="Layer_2_1_">
	</g>
	<g>
		<g>
			<rect x="0" y="0" class="st0" width="2272" height="1872"/>
		</g>
	</g>
</g>
<g id="object">
	<g>
		<path class="st1" d="M755.2,1219.7c-69.9,25-147.8,15.5-218.9-5.8c-117.7-35.3-229.2-106.2-290-213
			c-55.7-97.8-64.3-215.5-59.1-327.9c5-107.7,23.8-220.8,92.4-304C372.1,256.5,533.1,226,678.4,236.8s286.9,54.7,432.5,60.1
			c134.5,4.9,267.8-23.3,399.3-52.2c80.6-17.7,162.8-35.9,244.8-27.4c106.2,10.9,206.8,68.7,269.9,154.9
			c61.8,84.6,86.3,190.3,103,293.7c11.6,71.9,20.2,145.9,5.8,217.3c-21.4,106.4-91.8,197.1-172.6,269.6
			c-50,44.9-105,84.6-164.7,115.3c-181.9,93.5-395,98.4-599.5,95.7c-52.7-0.7-106-1.8-157.1-14.9c-117.8-30.2-220-122.5-341.6-120"
			/>
		<ellipse class="st2" cx="1149.5" cy="1327.1" rx="776.1" ry="474.5"/>
		<path class="st3" d="M1308.1,1730.6c0,0,168.9-112.9,331.5-95.1c0,0-35.2-92.9-52.2-90.5S1363,1542.8,1308.1,1730.6z"/>
		<path class="st3" d="M929.5,1730.6c0,0-168.9-112.9-331.5-95.1c0,0,35.2-92.9,52.2-90.5S874.6,1542.8,929.5,1730.6z"/>
		<ellipse class="st3" cx="1149.5" cy="1246.1" rx="329.1" ry="201.2"/>
		<g>
			<g>
				<path class="st4" d="M805.9,434.6c6.7-10,310.2-18.2,325.4,12.9s-230.6,54.9-277.9,91.6C853.4,539.2,772.9,484,805.9,434.6z"/>
				<path class="st5" d="M887.9,426.5c-45.2,1.5-79.7,4.7-82,8.1c-33,49.4,47.5,104.6,47.5,104.6c11.7-9.1,34.6-17.4,62.2-25.2
					c-3.9-22.8-9.7-45.3-17.5-67.1C895.5,439.8,892.4,432.5,887.9,426.5z"/>
				<g>
					<path class="st6" d="M643.6,469.1c0,0-171.1,231.1-148.8,441.1c0,0,15.1,19.1,35.7-2c20.6-21.2,97.7-209.7,122.9-237.3
						c0,0,28.7,356.4,44.6,356.9c15.9,0.5,35.6,4.2,51.4-25.9s23.3-182.4,23.3-182.4s39.6-11.8,53.6-27.1c0,0,20.2,160.3,40.4,155.7
						c20.2-4.6,51.1-13.1,55.1-62.9c4-49.8-44.5-405-115.7-462.1C806.2,423,671.7,416.4,643.6,469.1z"/>
					<path class="st7" d="M897.4,684.3c0.3,1.7,0.6,3.4,0.9,5.1c-27.4,26.2-61.4,45.7-97.5,57.8c-44.6,15-92.4,19.1-139.4,16.1
						c-0.6-6.6-1.2-12.9-1.7-19.1c9.4,104.3,27,283.1,38.3,283.5c15.9,0.5,35.6,4.2,51.4-25.9s23.3-182.4,23.3-182.4
						s39.6-11.8,53.6-27.1c0,0,20.2,160.3,40.4,155.7c20.2-4.6,51.1-13.1,55.1-62.9C923.6,862.5,914.6,776.6,897.4,684.3z"/>
					<path class="st8" d="M800.8,747.2c36.1-12.1,70.1-31.5,97.5-57.8c-20.4-111.9-52.9-234.8-92.2-266.4c0,0-134.5-6.6-162.5,46.1
						c0,0-62.1,83.9-106.7,196.6c27.2,3,53.1,16.4,71,37.1c5.6,6.5,10.4,13.7,14.8,21.1c12.6-25.4,23.6-45.4,30.6-53.1
						c0,0,3.2,39.6,8,92.5C708.4,766.3,756.2,762.1,800.8,747.2z"/>
					<path class="st5" d="M667.5,555.4c32.3,20,72.3,31.9,108.5,20.5c11.7-3.7,22.9-10,30.2-19.8c12.8-17.5,10.5-41.4,7-62.8
						c-3.9-23.7-8.7-47.2-14.3-70.5c-28.3-0.5-131.2,1-155.3,46.3c0,0-11.5,15.5-28.1,42.1C630.6,528.4,648.1,543.3,667.5,555.4z"/>
					<path class="st4" d="M601.3,695.7c-35.7,71.2-65,145.7-87.3,222.1c4.9-0.8,10.4-3.5,16.5-9.7c14.9-15.3,59.3-118,92.3-184.2
						c-4.4-7.4-9.2-14.6-14.8-21.1C605.8,700.3,603.6,698,601.3,695.7z"/>
					<path class="st9" d="M705.3,763.9c-14.6,0.6-29.3,0.3-43.9-0.6c0.1,1.1,0.2,2.2,0.3,3.3c0,0.3,0.1,0.6,0.1,0.9
						c0.1,0.6,0.1,1.3,0.2,2c0,0.5,0.1,0.9,0.1,1.4c0.1,0.6,0.1,1.2,0.2,1.8c0.1,0.9,0.2,1.9,0.3,2.8c0.1,0.5,0.1,1.1,0.2,1.6
						c0.1,0.6,0.1,1.2,0.2,1.8c0.1,0.6,0.1,1.2,0.2,1.7c0,0.4,0.1,0.9,0.1,1.3c0.1,1.3,0.2,2.5,0.4,3.8c0,0.3,0.1,0.6,0.1,0.9
						c0.1,0.7,0.1,1.4,0.2,2.1c0,0.5,0.1,1.1,0.1,1.6c0.1,0.6,0.1,1.1,0.2,1.7c0.1,1,0.2,2.1,0.3,3.1c0,0.4,0.1,0.9,0.1,1.3
						c0.1,0.7,0.1,1.5,0.2,2.2c0,0.5,0.1,1,0.1,1.5c0.1,1,0.2,1.9,0.3,2.9c0,0.5,0.1,1,0.1,1.5c0.1,0.8,0.2,1.6,0.2,2.4
						c0,0.5,0.1,1,0.1,1.5c0.1,0.8,0.1,1.5,0.2,2.3c0,0.4,0.1,0.9,0.1,1.3c0.1,1.1,0.2,2.2,0.3,3.3c0,0.5,0.1,1,0.1,1.5
						c0.1,0.7,0.1,1.4,0.2,2.1c0.1,0.5,0.1,1.1,0.2,1.6c0.1,1.1,0.2,2.2,0.3,3.3c0,0.4,0.1,0.8,0.1,1.3c0.1,0.8,0.2,1.7,0.2,2.5
						c0,0.5,0.1,0.9,0.1,1.4c0.1,0.8,0.2,1.7,0.3,2.5c0.1,0.6,0.1,1.1,0.2,1.7c0.1,0.9,0.2,1.9,0.3,2.8c0,0.5,0.1,1,0.1,1.5
						c0.1,0.9,0.2,1.7,0.3,2.6c0,0.3,0.1,0.7,0.1,1c0.1,1.2,0.2,2.3,0.4,3.5c0,0.4,0.1,0.8,0.1,1.2c0.1,0.9,0.2,1.8,0.3,2.7
						c0,0.4,0.1,0.8,0.1,1.2c0.1,1.2,0.2,2.3,0.4,3.5c0,0.2,0,0.4,0.1,0.6c0.1,1.1,0.2,2.2,0.3,3.3c0,0.4,0.1,0.7,0.1,1.1
						c0.1,1,0.2,1.9,0.3,2.9c0,0.3,0.1,0.7,0.1,1c0.1,1.2,0.2,2.3,0.4,3.5c0,0.4,0.1,0.8,0.1,1.2c0.1,0.9,0.2,1.8,0.3,2.7
						c0,0.3,0.1,0.7,0.1,1c0.1,1.2,0.3,2.4,0.4,3.6c0,0.2,0.1,0.5,0.1,0.7c0.1,1,0.2,2,0.3,3c0,0.4,0.1,0.8,0.1,1.2
						c0.1,1,0.2,2,0.3,3c0,0.2,0,0.4,0.1,0.6c0.1,1.2,0.3,2.4,0.4,3.6c0,0.4,0.1,0.7,0.1,1.1c0.1,0.9,0.2,1.8,0.3,2.7
						c0,0.3,0.1,0.7,0.1,1c0.1,1.2,0.3,2.4,0.4,3.6c0,0.2,0,0.4,0.1,0.6c0.1,1,0.2,2,0.3,3c0,0.4,0.1,0.7,0.1,1.1
						c0.1,1.2,0.3,2.3,0.4,3.5c0,0,0,0.1,0,0.1c0.1,1.2,0.3,2.4,0.4,3.6c0,0.3,0.1,0.6,0.1,0.9c0.1,0.9,0.2,1.9,0.3,2.8
						c0,0.3,0.1,0.6,0.1,0.9c0.1,1.2,0.3,2.3,0.4,3.5c0,0.3,0.1,0.5,0.1,0.8c0.1,0.9,0.2,1.9,0.3,2.8c0,0.3,0.1,0.7,0.1,1
						c0.3,2.3,0.5,4.6,0.8,6.8c0,0.3,0.1,0.7,0.1,1c0.1,1,0.2,1.9,0.4,2.9c0,0.2,0,0.3,0.1,0.5c0.1,1.1,0.3,2.3,0.4,3.4
						c0,0.2,0.1,0.5,0.1,0.7c0.1,0.9,0.2,1.8,0.3,2.7c0,0.3,0.1,0.6,0.1,0.8c0.1,1.1,0.3,2.2,0.4,3.3c0,0.1,0,0.1,0,0.2
						c0.1,1,0.3,2.1,0.4,3.1c0,0.3,0.1,0.5,0.1,0.8c0.1,1,0.3,2,0.4,2.9c0,0.1,0,0.2,0,0.3c0.1,1.1,0.3,2.1,0.4,3.2
						c0,0.3,0.1,0.5,0.1,0.8c0.1,0.9,0.2,1.7,0.3,2.6c0,0.2,0.1,0.4,0.1,0.6c0.1,1,0.3,2.1,0.4,3.1c0,0.1,0,0.3,0.1,0.4
						c0.1,0.9,0.2,1.8,0.4,2.6c0,0.2,0.1,0.5,0.1,0.7c0.3,2,0.6,4,0.8,5.9c0,0.2,0.1,0.5,0.1,0.7c0.1,0.8,0.2,1.6,0.4,2.4
						c0,0.2,0,0.3,0.1,0.5c0.1,0.9,0.3,1.9,0.4,2.8c0,0.2,0.1,0.4,0.1,0.6c0.1,0.8,0.2,1.5,0.3,2.2c0,0.2,0.1,0.5,0.1,0.7
						c0.1,0.9,0.3,1.8,0.4,2.7c0,0,0,0,0,0c0.1,0.9,0.3,1.7,0.4,2.6c0,0.2,0.1,0.4,0.1,0.7c0.1,0.7,0.2,1.5,0.4,2.2
						c0,0.1,0,0.3,0.1,0.4c0.1,0.8,0.3,1.7,0.4,2.5c0,0.2,0.1,0.4,0.1,0.5c0.1,0.7,0.2,1.3,0.3,2c0,0.2,0.1,0.4,0.1,0.5
						c0.1,0.8,0.3,1.6,0.4,2.3c0,0.1,0,0.2,0,0.3c0.1,0.7,0.2,1.3,0.4,2c0,0.2,0.1,0.4,0.1,0.6c0.1,0.7,0.2,1.3,0.4,2
						c0,0.1,0,0.1,0,0.2c0.1,0.7,0.3,1.4,0.4,2.1c0,0.2,0.1,0.3,0.1,0.5c0.1,0.6,0.2,1.1,0.3,1.6c0,0.1,0.1,0.3,0.1,0.5
						c0.1,0.7,0.3,1.3,0.4,1.9c0,0.1,0,0.2,0.1,0.3c0.1,0.5,0.2,1.1,0.3,1.6c0,0.2,0.1,0.3,0.1,0.5c0.3,1.2,0.5,2.4,0.8,3.5
						c0,0.1,0.1,0.3,0.1,0.4c0.1,0.5,0.2,0.9,0.3,1.3c0,0.1,0,0.2,0.1,0.3c0.1,0.5,0.3,1,0.4,1.5c0,0.1,0.1,0.2,0.1,0.3
						c0.1,0.4,0.2,0.8,0.3,1.2c0,0.1,0.1,0.2,0.1,0.3c0.1,0.5,0.3,0.9,0.4,1.3c0,0,0,0.1,0,0.1c0.1,0.4,0.2,0.8,0.3,1.1
						c0,0.1,0.1,0.2,0.1,0.3c0.1,0.3,0.2,0.7,0.3,1c0,0.1,0,0.1,0.1,0.2c0.1,0.4,0.2,0.7,0.4,1c0,0.1,0.1,0.2,0.1,0.2
						c0.1,0.3,0.2,0.5,0.3,0.7c0,0.1,0.1,0.2,0.1,0.2c0.1,0.3,0.2,0.6,0.4,0.8c0,0,0,0.1,0.1,0.1c0.1,0.2,0.2,0.4,0.3,0.6
						c0,0.1,0.1,0.1,0.1,0.2c0.1,0.2,0.2,0.4,0.3,0.6c0,0,0,0,0,0.1c0.1,0.2,0.2,0.4,0.3,0.5c0,0,0.1,0.1,0.1,0.1
						c0.1,0.1,0.2,0.2,0.3,0.3c0,0,0.1,0.1,0.1,0.1c0.1,0.1,0.2,0.2,0.3,0.3c0,0,0,0,0.1,0c0.1,0.1,0.2,0.1,0.3,0.1c0,0,0.1,0,0.1,0
						c0.1,0,0.2,0.1,0.3,0.1c5.5,0.2,11.4,0.7,17.5,0.1c-1.4-65.9-3.1-131.8-6.1-197.7C708.4,808.1,707.2,785.9,705.3,763.9z"/>
					<path class="st5" d="M660.1,748.8c0.1,1.2,0.2,2.4,0.3,3.6c0,0.3,0.1,0.7,0.1,1c0,0.1,0,0.1,0,0.2c0.1,1.5,0.3,3.1,0.4,4.6
						c0,0.1,0,0.1,0,0.2c0.1,1.5,0.3,3.1,0.4,4.6c0,0.1,0,0.2,0,0.2c14.6,0.9,29.3,1.2,43.9,0.6c-4.2-49.6-12-98.8-29.7-145.2
						c-2.4-6.3-6.5-13.7-13.3-13.6c-4.6,0-8.4,3.7-11.4,7.2c-13,15.1-22.9,32.6-32.3,50.1c-5.9,11-11.7,22.1-17.3,33.3
						c2.3,2.3,4.6,4.6,6.7,7.1c5.6,6.5,10.4,13.7,14.8,21.1c2.8-5.5,5.4-10.8,8-15.8c0,0,0-0.1,0-0.1c0.3-0.7,0.7-1.3,1-1.9
						c0-0.1,0.1-0.2,0.1-0.2c0.3-0.6,0.6-1.2,0.9-1.8c0.1-0.1,0.1-0.2,0.2-0.3c0.3-0.6,0.6-1.1,0.9-1.6c0.1-0.1,0.1-0.2,0.2-0.4
						c0.3-0.5,0.6-1.1,0.9-1.6c0.1-0.1,0.1-0.2,0.2-0.3c0.3-0.6,0.6-1.2,0.9-1.7c0,0,0.1-0.1,0.1-0.1c1-1.9,2-3.7,3-5.5
						c0-0.1,0.1-0.1,0.1-0.2c0.3-0.5,0.6-1,0.8-1.5c0.1-0.1,0.2-0.3,0.2-0.4c0.2-0.4,0.5-0.8,0.7-1.2c0.1-0.2,0.2-0.3,0.3-0.5
						c0.2-0.4,0.4-0.7,0.6-1.1c0.1-0.2,0.2-0.3,0.3-0.5c0.2-0.4,0.4-0.7,0.6-1c0.1-0.2,0.2-0.3,0.3-0.5c0.2-0.3,0.4-0.7,0.6-1
						c0.1-0.2,0.2-0.3,0.3-0.5c0.2-0.3,0.4-0.7,0.6-1c0.1-0.1,0.2-0.3,0.2-0.4c0.2-0.4,0.5-0.7,0.7-1.1c0-0.1,0.1-0.2,0.1-0.2
						c0.3-0.4,0.6-0.9,0.8-1.3c0,0,0,0,0,0c0.3-0.4,0.5-0.8,0.8-1.2c0.1-0.1,0.2-0.2,0.2-0.3c0.2-0.3,0.4-0.6,0.6-0.8
						c0.1-0.1,0.2-0.3,0.3-0.4c0.2-0.2,0.3-0.5,0.5-0.7c0.1-0.1,0.2-0.3,0.3-0.4c0.1-0.2,0.3-0.4,0.4-0.6c0.1-0.1,0.2-0.3,0.3-0.4
						c0.1-0.2,0.3-0.4,0.4-0.6c0.1-0.1,0.2-0.3,0.3-0.4c0.1-0.2,0.3-0.4,0.4-0.5c0.1-0.1,0.2-0.3,0.3-0.4c0.1-0.2,0.3-0.4,0.4-0.5
						c0.1-0.1,0.2-0.2,0.3-0.3c0.1-0.2,0.3-0.4,0.4-0.5c0.1-0.1,0.1-0.2,0.2-0.3c0.2-0.3,0.4-0.5,0.6-0.7c0,0,0,0.1,0,0.1
						c0,0.1,0,0.2,0,0.3c0,0.2,0,0.4,0.1,0.7c0,0.2,0,0.4,0,0.6c0,0.1,0,0.2,0,0.3c0,0.2,0,0.5,0.1,0.8c0,0,0,0,0,0
						c0,0.3,0.1,0.7,0.1,1.1c0,0.1,0,0.1,0,0.2c0.1,1.7,0.3,4,0.6,6.7c0,0,0,0.1,0,0.1c0.1,0.6,0.1,1.3,0.2,2c0,0.1,0,0.1,0,0.2
						c0.9,10.6,2.3,26.9,4,46.9c0,0,0,0,0,0c0.1,1.4,0.2,2.8,0.4,4.2c0,0.1,0,0.1,0,0.2c0.3,2.9,0.5,5.9,0.8,8.9c0,0,0,0.1,0,0.1
						c0.1,1.5,0.3,2.9,0.4,4.4C660.1,748.7,660.1,748.8,660.1,748.8z"/>
					<g>
						<path class="st7" d="M577.3,429.2L577.3,429.2C577.3,429.2,577.3,429.2,577.3,429.2c2.2,0,4.5,0.2,6.7,0.5c0,0,0.1,0,0.1,0
							c0.5,0.1,1,0.2,1.5,0.2c0.1,0,0.2,0,0.4,0.1c0.4,0.1,0.9,0.2,1.3,0.3c-0.1-0.4-0.3-0.7-0.4-1.1c0.2,0.6,0.4,1.1,0.6,1.7
							c0.1,0.3,0.2,0.7,0.3,1c0.2,0.6,0.4,1.1,0.6,1.7c0.1,0.3,0.2,0.7,0.4,1c0.2,0.6,0.4,1.2,0.7,1.8c0.1,0.3,0.2,0.6,0.3,0.9
							c0.2,0.6,0.5,1.3,0.7,2c0.1,0.3,0.2,0.6,0.3,0.8c0.3,0.8,0.6,1.5,0.9,2.3c0.1,0.2,0.1,0.4,0.2,0.6c1.2,3,2.4,6,3.7,9.1
							c0.1,0.1,0.1,0.3,0.2,0.4c0.4,0.9,0.8,1.8,1.1,2.6c0.1,0.2,0.2,0.4,0.3,0.6c0.4,0.8,0.7,1.6,1.1,2.5c0.1,0.2,0.2,0.5,0.3,0.7
							c0.4,0.8,0.7,1.6,1.1,2.4c0.1,0.2,0.2,0.5,0.3,0.7c0.4,0.8,0.8,1.6,1.2,2.5c0.1,0.2,0.2,0.5,0.3,0.7c0.4,0.9,0.9,1.8,1.3,2.7
							c0.1,0.2,0.2,0.3,0.2,0.5c0.5,1.1,1.1,2.1,1.6,3.2c7.9-8.8,15.3-19,14.4-30.5c-0.7-8.1-5.5-15.1-9-22.4
							c-6.1-12.4-8.9-26.4-8-40.1c0.3-4.9,1.2-10.1,4.7-13.5c2-2,4.8-3.1,7.5-4c29.8-10.1,66.6,0.4,91.1-19.5
							c6.1-4.9,10.8-11.4,17-16.1c10.4-8,24.8-10.4,37.3-6.3c12.4,4.1,22.5,14.7,26.1,27.3c1.9,6.6,2.2,14.1,6.8,19.2
							c2.1,2.4,5.6,3.4,8.7,3.2l0,0c0,0,0,0,0,0c-0.6-2.8-1.2-5.6-1.9-8.4c0.1,0.3,0.1,0.6,0.2,0.8c0-0.1,0.1-0.2,0.1-0.3
							c0,0,0-0.1,0.1-0.1c0.3-0.7,0.7-1.4,1-2c0,0,0-0.1,0-0.1c0.4-0.7,0.8-1.3,1.2-2c0,0,0,0,0,0l0,0c1.7-2.6,3.9-4.7,6.5-5.4
							c-1.3-5.6-2.9-11.1-4.6-16.4c-6.7-20.6-15.7-40.6-19.3-61.9c-3.8-22.5-1.3-45.9,7-67.1c5.5-13.9,13.3-30.2,5.2-42.7
							c-8.1-12.4-26.6-11.9-40.5-6.7c-2.1,0.8-4.3,1.6-6.4,1c-2.8-0.8-4.2-3.8-6.1-6c-5.4-6.7-15.6-7.8-23.7-4.9
							s-14.6,8.9-20.9,14.8c-0.6-10.4-11.6-18-22-17.5c-10.4,0.5-19.6,7.3-25.8,15.6c-3.9-10.5-15.4-17.7-26.6-16.6
							c-11.2,1.1-21,10.4-22.8,21.5c-15.5-11.8-42.1-1.3-45.3,17.9c-1,5.7-0.7,12.5-5.3,15.9c-4.6,3.4-11,1-16.8,1.2
							c-9.8,0.3-18,8.8-20.6,18.3c-2.5,9.5-0.5,19.7,2.9,28.9c-17.9-1.1-33.5,19-28.1,36.1c1.4,4.5,4.1,9.3,2.5,13.8
							c-2.2,6.4-10.9,7.3-16.2,11.7c-5.8,4.9-6.6,13.9-3.8,21c2.8,7.1,8.3,12.7,13.7,18c-9.6-0.1-18.7,7.3-20.6,16.7
							c-1.9,9.4,3.8,19.8,12.7,23.3c-7.3,2-14.9,4.2-20.1,9.7c-5.2,5.5-6.5,15.3-0.7,20.2c4.4,3.6,10.8,3.1,16.4,2.7
							c31.2-2.2,55.7,6.3,79.4,20.1C557,432.7,566.8,429.2,577.3,429.2z M586,426.6c0.2,0.6,0.4,1.2,0.6,1.8
							C586.4,427.7,586.2,427.1,586,426.6z"/>
						<path class="st9" d="M487.8,276.4c0.1,2.2,0.4,4.4,1.1,6.5c1.4,4.5,4.1,9.3,2.5,13.8c-2.2,6.4-10.9,7.3-16.2,11.7
							c-5.8,4.9-6.6,13.9-3.8,21c2.8,7.1,8.3,12.7,13.7,18c-9.6-0.1-18.7,7.3-20.6,16.7c-1.9,9.4,3.8,19.8,12.7,23.3
							c-7.3,2-14.9,4.2-20.1,9.7c-5.2,5.5-6.5,15.3-0.7,20.2c4.4,3.6,10.8,3.1,16.4,2.7c31.2-2.2,55.7,6.3,79.4,20.1
							c4.9-7.3,14.7-10.8,25.2-10.8c0,0,0,0,0,0c2.2,0,4.5,0.2,6.7,0.5c0,0,0.1,0,0.1,0c0.5,0.1,1,0.2,1.5,0.2c0.1,0,0.2,0,0.4,0.1
							c0.4,0.1,0.9,0.2,1.3,0.3c-0.1-0.4-0.3-0.7-0.4-1.1c0.2,0.6,0.4,1.1,0.6,1.7c0.1,0.3,0.2,0.7,0.3,1c0.2,0.6,0.4,1.1,0.6,1.7
							c0.1,0.3,0.2,0.7,0.4,1c0.2,0.6,0.4,1.2,0.7,1.8c0.1,0.3,0.2,0.6,0.3,0.9c0.2,0.6,0.5,1.3,0.7,2c0.1,0.3,0.2,0.6,0.3,0.8
							c0.3,0.8,0.6,1.5,0.9,2.3c0.1,0.2,0.1,0.4,0.2,0.6c1.2,3,2.4,6,3.7,9.1c0.1,0.1,0.1,0.3,0.2,0.4c0.4,0.9,0.8,1.8,1.1,2.6
							c0.1,0.2,0.2,0.4,0.3,0.6c0.4,0.8,0.7,1.6,1.1,2.5c0.1,0.2,0.2,0.5,0.3,0.7c0.4,0.8,0.7,1.6,1.1,2.4c0.1,0.2,0.2,0.5,0.3,0.7
							c0.4,0.8,0.8,1.6,1.2,2.5c0.1,0.2,0.2,0.5,0.3,0.7c0.4,0.9,0.9,1.8,1.3,2.7c0.1,0.2,0.2,0.3,0.2,0.5c0.5,1.1,1.1,2.1,1.6,3.2
							c7.9-8.8,15.3-19,14.4-30.5c-0.7-8.1-5.5-15.1-9-22.4c-6.1-12.4-8.9-26.4-8-40.1c0.3-4.9,1.2-10.1,4.7-13.5c2-2,4.8-3.1,7.5-4
							c18.6-6.3,39.9-4.6,59.2-7.2c-34.3-33.6-79.2-56.6-126.8-63.5C526.8,287.4,504.6,286.3,487.8,276.4z M586.6,428.3
							c-0.2-0.6-0.4-1.2-0.6-1.8C586.2,427.1,586.4,427.7,586.6,428.3z"/>
						<path class="st6" d="M577.3,429.2c2.2,0,4.5,0.2,6.7,0.5C581.8,429.4,579.5,429.3,577.3,429.2z"/>
						<path class="st6" d="M584.1,429.8c0.5,0.1,1,0.2,1.5,0.2C585.2,429.9,584.7,429.8,584.1,429.8z"/>
						<path class="st10" d="M601.8,465.3c-0.1-0.2-0.2-0.5-0.3-0.7c-0.4-0.8-0.8-1.6-1.2-2.5c-0.1-0.2-0.2-0.5-0.3-0.7
							c-0.4-0.8-0.7-1.6-1.1-2.4c-0.1-0.2-0.2-0.5-0.3-0.7c-0.4-0.8-0.7-1.6-1.1-2.5c-0.1-0.2-0.2-0.4-0.3-0.6
							c-0.4-0.9-0.8-1.8-1.1-2.6c-0.1-0.1-0.1-0.3-0.2-0.4c-1.3-3.1-2.6-6.1-3.7-9.1c-0.1-0.2-0.1-0.4-0.2-0.6
							c-0.3-0.8-0.6-1.5-0.9-2.3c-0.1-0.3-0.2-0.6-0.3-0.8c-0.3-0.7-0.5-1.3-0.7-2c-0.1-0.3-0.2-0.6-0.3-0.9
							c-0.2-0.6-0.4-1.2-0.7-1.8c-0.1-0.3-0.2-0.7-0.4-1c-0.2-0.6-0.4-1.1-0.6-1.7c-0.1-0.3-0.2-0.7-0.3-1c-0.1-0.2-0.1-0.4-0.2-0.6
							c-0.4-0.1-0.9-0.2-1.3-0.3c-0.1,0-0.2,0-0.4-0.1c-0.5-0.1-1-0.2-1.5-0.2c0,0-0.1,0-0.1,0c-2.2-0.3-4.5-0.5-6.7-0.5
							c0,0,0,0,0,0l0,0c4.3,14.9,10.8,29.2,19.2,42.3c4.4,6.8,9.7,13.5,16.7,17.2c0.2-0.4,0.4-0.9,0.6-1.3
							c-3.8-6.3-7.3-12.7-10.5-19c-0.1-0.2-0.2-0.3-0.2-0.5C602.7,467.1,602.2,466.2,601.8,465.3z"/>
						<path class="st6" d="M816.2,352.9c-2.9-1.7-5.4-2-7.6-1.4c-2.6,0.7-4.8,2.8-6.5,5.4c8,21,11.3,43.8,9.7,66.2
							c-1,0.1-1.9,0-2.8-0.1c-0.9-17.8-3.8-36.1-7.6-54.1c-3.2,0.2-6.6-0.9-8.7-3.2c-4.6-5.1-5-12.6-6.8-19.2
							c-3.6-12.6-13.7-23.2-26.1-27.3c-12.4-4.1-26.8-1.7-37.3,6.3c-6.2,4.8-10.9,11.2-17,16.1c-24.4,19.8-61.2,9.4-91.1,19.5
							c-2.7,0.9-5.4,2-7.5,4c-3.5,3.4-4.4,8.6-4.7,13.5c-0.8,13.8,2,27.7,8,40.1c3.6,7.3,8.3,14.3,9,22.4c1,11.6-6.4,21.7-14.4,30.5
							c-0.5-1.1-1.1-2.1-1.6-3.2c3.2,6.3,6.7,12.7,10.5,19c-0.2,0.4-0.4,0.9-0.6,1.3c-7-3.7-12.4-10.4-16.7-17.2
							c-8.4-13.1-14.9-27.4-19.2-42.3c-10.5,0-20.3,3.5-25.2,10.8c-1.7,2.6-2.8,5.7-3.2,9.2c-1.7,19.7,10.1,39.8,30.1,51.5
							c2.9,1.7,6,3.2,9.6,3.7c9,1.2,17.1-4.7,21.6-10.9c1.3-1.8,2.5-3.9,3.5-6c23.9,39.3,61.1,73.9,115.4,60.4
							c66-16.4,82.7-67.8,79.8-124.9c4.8,0.8,10.1-1.3,14.3-7.8c3.9-5.9,4.7-13.3,5.1-20.3C829.1,382.4,829,360.2,816.2,352.9z"/>
						<path class="st4" d="M652.9,490.4c-22-39.5-36.2-83.3-41.6-128.2c-1.6,0.7-3.1,1.6-4.4,2.8c-3.5,3.4-4.4,8.6-4.7,13.5
							c-0.8,13.8,2,27.7,8,40.1c3.6,7.3,8.3,14.3,9,22.4c1,11.6-6.4,21.7-14.3,30.5c2.7,5.3,5.7,10.6,8.9,15.9c0,0,0,0.1,0,0.1
							c0,0,0-0.1,0-0.1c21.1,34.7,52.6,65.7,97,63.2c-3.2-1.4-6.3-3-9.3-4.8C680.1,533.2,665,512.2,652.9,490.4z"/>
						<path class="st6" d="M800.9,358.8c0.4-0.7,0.8-1.3,1.2-2C801.7,357.5,801.3,358.2,800.9,358.8z"/>
						<path class="st6" d="M799.8,361c0.3-0.7,0.7-1.4,1-2C800.5,359.6,800.2,360.3,799.8,361z"/>
						<path class="st6" d="M799.8,361.1c0,0.1-0.1,0.2-0.1,0.3c-0.1-0.3-0.1-0.6-0.2-0.8c0.6,2.8,1.3,5.6,1.9,8.4
							c-0.5-2.5-1.1-5-1.7-7.5C799.7,361.3,799.7,361.2,799.8,361.1z"/>
						<path class="st10" d="M802.1,356.9c-0.4,0.6-0.8,1.3-1.2,2c0,0,0,0.1,0,0.1c-0.4,0.7-0.7,1.3-1,2c0,0,0,0.1-0.1,0.1
							c0,0.1-0.1,0.2-0.1,0.3c0.6,2.5,1.1,5,1.7,7.5c0,0,0,0,0,0l0,0c3.9,18,6.7,36.3,7.6,54.1c0.9,0.2,1.9,0.2,2.8,0.1
							C813.4,400.7,810,377.9,802.1,356.9L802.1,356.9C802.1,356.9,802.1,356.9,802.1,356.9z"/>
						<path class="st6" d="M587.5,430.9c-0.2-0.6-0.4-1.1-0.6-1.7c0.1,0.4,0.2,0.7,0.4,1.1c-0.4-0.1-0.9-0.2-1.3-0.3
							c0.4,0.1,0.9,0.2,1.3,0.3C587.4,430.5,587.5,430.7,587.5,430.9z"/>
						<path class="st6" d="M590.9,440.2c0.3,0.8,0.6,1.5,0.9,2.3C591.5,441.7,591.2,440.9,590.9,440.2z"/>
						<path class="st6" d="M589.9,437.4c0.2,0.6,0.5,1.3,0.7,2C590.4,438.7,590.1,438,589.9,437.4z"/>
						<path class="st6" d="M588.9,434.6c0.2,0.6,0.4,1.2,0.7,1.8C589.3,435.8,589.1,435.2,588.9,434.6z"/>
						<path class="st6" d="M592.1,443c1.2,3,2.4,6,3.7,9.1C594.5,449,593.2,446,592.1,443z"/>
						<path class="st6" d="M596,452.5c0.4,0.9,0.8,1.8,1.1,2.6C596.7,454.3,596.3,453.4,596,452.5z"/>
						<path class="st6" d="M601.8,465.3c0.4,0.9,0.9,1.8,1.3,2.7C602.7,467.1,602.2,466.2,601.8,465.3z"/>
						<path class="st6" d="M600.3,462.1c0.4,0.8,0.8,1.6,1.2,2.5C601.1,463.8,600.7,463,600.3,462.1z"/>
						<path class="st6" d="M597.4,455.8c0.4,0.8,0.7,1.6,1.1,2.5C598.1,457.4,597.8,456.6,597.4,455.8z"/>
						<path class="st6" d="M587.9,431.9c0.2,0.6,0.4,1.1,0.6,1.7C588.3,433.1,588.1,432.5,587.9,431.9z"/>
						<path class="st6" d="M598.8,459c0.4,0.8,0.7,1.6,1.1,2.4C599.6,460.6,599.2,459.8,598.8,459z"/>
					</g>
				</g>
			</g>
			<path class="st7" d="M1697,358.9c-6.5-33.4-27.9-64.1-58-79.7c-44-22.9-66.2-35.9-113.7-50c-7-2.1-26.9-7.6-38.7-14.3
				c-5.4-3.1-12.2-0.9-14.9,4.7c-6.8,14.6-17.4,35-19.9,39.2c-6,10-10.7,20.7-14.2,31.9c-7,22.3-9,46.1-5.4,69.2
				c7.9,51.5,47,82.9,91.2,106.6c29.9,16,63.8,25.3,97.6,22.7c15.7-1.2,32-5.3,43.7-15.8c5.3-4.7,9.5-10.6,13.2-16.6
				C1695.7,427.8,1703.5,392.3,1697,358.9z"/>
			<path class="st11" d="M1684.5,370.2c-7.1,0.1-14.6-1.1-20.1-5.6c-2.6-2.2-4.6-4.9-6.8-7.5c-5.5-6.4-12.5-11.5-19.8-15.8
				c-22.6-13.2-48.4-19.5-73.5-27s-50.4-17.1-69.4-35.1c-15.9-15.1-26.1-37.7-23.6-59c-6.8,14.6-17.2,34.4-19.6,38.6
				c-6,10-10.7,20.7-14.2,31.9c-7,22.3-9,46.1-5.4,69.2c7.9,51.5,47,82.9,91.2,106.6c29.9,16,63.8,25.3,97.6,22.7
				c15.7-1.2,32-5.3,43.7-15.8c5.3-4.7,9.5-10.6,13.2-16.6c16.1-26.2,24-57.7,20.6-88.1C1693.9,369.6,1689.2,370.2,1684.5,370.2z"/>
			<g>
				<path class="st12" d="M1440.9,434.6c-6.7-10-301.2-16.5-316.3,14.6s221.6,53.2,268.9,90C1393.4,539.2,1473.9,484,1440.9,434.6z"
					/>
				<path class="st13" d="M1358.9,426.5c45.2,1.5,79.7,4.7,82,8.1c33,49.4-47.5,104.6-47.5,104.6c-11.7-9.1-34.6-17.4-62.2-25.2
					c3.9-22.8,9.7-45.3,17.5-67.1C1351.3,439.8,1354.4,432.5,1358.9,426.5z"/>
				<g>
					<path class="st12" d="M1603.2,469.1c0,0,171.1,231.1,148.8,441.1c0,0-15.1,19.1-35.7-2s-97.7-209.7-122.9-237.3
						c0,0-28.7,356.4-44.6,356.9c-15.9,0.5-35.6,4.2-51.4-25.9c-15.8-30.1-23.3-182.4-23.3-182.4s-39.6-11.8-53.6-27.1
						c0,0-20.2,160.3-40.4,155.7c-20.2-4.6-51.1-13.1-55.1-62.9c-4-49.8,44.5-405,115.7-462.1C1440.6,423,1575.1,416.4,1603.2,469.1
						z"/>
					<path class="st7" d="M1349.3,684.3c-0.3,1.7-0.6,3.4-0.9,5.1c27.4,26.2,61.4,45.7,97.5,57.8c44.6,15,92.4,19.1,139.4,16.1
						c0.6-6.6,1.2-12.9,1.7-19.1c-9.4,104.3-27,283.1-38.3,283.5c-15.9,0.5-35.6,4.2-51.4-25.9s-23.3-182.4-23.3-182.4
						s-39.6-11.8-53.6-27.1c0,0-20.2,160.3-40.4,155.7c-20.2-4.6-51.1-13.1-55.1-62.9C1323.2,862.5,1332.2,776.6,1349.3,684.3z"/>
					<path class="st14" d="M1446,747.2c-36.1-12.1-70.1-31.5-97.5-57.8c20.4-111.9,52.9-234.8,92.2-266.4c0,0,134.5-6.6,162.5,46.1
						c0,0,62.1,83.9,106.7,196.6c-27.2,3-53.1,16.4-71,37.1c-5.6,6.5-10.4,13.7-14.8,21.1c-12.6-25.4-23.6-45.4-30.6-53.1
						c0,0-3.2,39.6-8,92.5C1538.4,766.3,1490.6,762.1,1446,747.2z"/>
					<path class="st13" d="M1579.3,555.4c-32.3,20-72.3,31.9-108.5,20.5c-11.7-3.7-22.9-10-30.2-19.8c-12.8-17.5-10.5-41.4-7-62.8
						c3.9-23.7,8.7-47.2,14.3-70.5c28.3-0.5,131.2,1,155.3,46.3c0,0,11.5,15.5,28.1,42.1C1616.2,528.4,1598.7,543.3,1579.3,555.4z"
						/>
					<path class="st15" d="M1645.5,695.7c35.7,71.2,65,145.7,87.3,222.1c-4.9-0.8-10.4-3.5-16.5-9.7c-14.9-15.3-59.3-118-92.3-184.2
						c4.4-7.4,9.2-14.6,14.8-21.1C1640.9,700.3,1643.2,698,1645.5,695.7z"/>
					<path class="st9" d="M1541.5,763.9c14.6,0.6,29.3,0.3,43.9-0.6c-0.1,1.1-0.2,2.2-0.3,3.3c0,0.3-0.1,0.6-0.1,0.9
						c-0.1,0.6-0.1,1.3-0.2,2c0,0.5-0.1,0.9-0.1,1.4c-0.1,0.6-0.1,1.2-0.2,1.8c-0.1,0.9-0.2,1.9-0.3,2.8c-0.1,0.5-0.1,1.1-0.2,1.6
						c-0.1,0.6-0.1,1.2-0.2,1.8c-0.1,0.6-0.1,1.2-0.2,1.7c0,0.4-0.1,0.9-0.1,1.3c-0.1,1.3-0.2,2.5-0.4,3.8c0,0.3-0.1,0.6-0.1,0.9
						c-0.1,0.7-0.1,1.4-0.2,2.1c0,0.5-0.1,1.1-0.1,1.6c-0.1,0.6-0.1,1.1-0.2,1.7c-0.1,1-0.2,2.1-0.3,3.1c0,0.4-0.1,0.9-0.1,1.3
						c-0.1,0.7-0.1,1.5-0.2,2.2c0,0.5-0.1,1-0.1,1.5c-0.1,1-0.2,1.9-0.3,2.9c0,0.5-0.1,1-0.1,1.5c-0.1,0.8-0.2,1.6-0.2,2.4
						c0,0.5-0.1,1-0.1,1.5c-0.1,0.8-0.1,1.5-0.2,2.3c0,0.4-0.1,0.9-0.1,1.3c-0.1,1.1-0.2,2.2-0.3,3.3c0,0.5-0.1,1-0.1,1.5
						c-0.1,0.7-0.1,1.4-0.2,2.1c-0.1,0.5-0.1,1.1-0.2,1.6c-0.1,1.1-0.2,2.2-0.3,3.3c0,0.4-0.1,0.8-0.1,1.3c-0.1,0.8-0.2,1.7-0.2,2.5
						c0,0.5-0.1,0.9-0.1,1.4c-0.1,0.8-0.2,1.7-0.3,2.5c-0.1,0.6-0.1,1.1-0.2,1.7c-0.1,0.9-0.2,1.9-0.3,2.8c0,0.5-0.1,1-0.1,1.5
						c-0.1,0.9-0.2,1.7-0.3,2.6c0,0.3-0.1,0.7-0.1,1c-0.1,1.2-0.2,2.3-0.4,3.5c0,0.4-0.1,0.8-0.1,1.2c-0.1,0.9-0.2,1.8-0.3,2.7
						c0,0.4-0.1,0.8-0.1,1.2c-0.1,1.2-0.2,2.3-0.4,3.5c0,0.2,0,0.4-0.1,0.6c-0.1,1.1-0.2,2.2-0.3,3.3c0,0.4-0.1,0.7-0.1,1.1
						c-0.1,1-0.2,1.9-0.3,2.9c0,0.3-0.1,0.7-0.1,1c-0.1,1.2-0.2,2.3-0.4,3.5c0,0.4-0.1,0.8-0.1,1.2c-0.1,0.9-0.2,1.8-0.3,2.7
						c0,0.3-0.1,0.7-0.1,1c-0.1,1.2-0.3,2.4-0.4,3.6c0,0.2-0.1,0.5-0.1,0.7c-0.1,1-0.2,2-0.3,3c0,0.4-0.1,0.8-0.1,1.2
						c-0.1,1-0.2,2-0.3,3c0,0.2,0,0.4-0.1,0.6c-0.1,1.2-0.3,2.4-0.4,3.6c0,0.4-0.1,0.7-0.1,1.1c-0.1,0.9-0.2,1.8-0.3,2.7
						c0,0.3-0.1,0.7-0.1,1c-0.1,1.2-0.3,2.4-0.4,3.6c0,0.2,0,0.4-0.1,0.6c-0.1,1-0.2,2-0.3,3c0,0.4-0.1,0.7-0.1,1.1
						c-0.1,1.2-0.3,2.3-0.4,3.5c0,0,0,0.1,0,0.1c-0.1,1.2-0.3,2.4-0.4,3.6c0,0.3-0.1,0.6-0.1,0.9c-0.1,0.9-0.2,1.9-0.3,2.8
						c0,0.3-0.1,0.6-0.1,0.9c-0.1,1.2-0.3,2.3-0.4,3.5c0,0.3-0.1,0.5-0.1,0.8c-0.1,0.9-0.2,1.9-0.3,2.8c0,0.3-0.1,0.7-0.1,1
						c-0.3,2.3-0.5,4.6-0.8,6.8c0,0.3-0.1,0.7-0.1,1c-0.1,1-0.2,1.9-0.4,2.9c0,0.2,0,0.3-0.1,0.5c-0.1,1.1-0.3,2.3-0.4,3.4
						c0,0.2-0.1,0.5-0.1,0.7c-0.1,0.9-0.2,1.8-0.3,2.7c0,0.3-0.1,0.6-0.1,0.8c-0.1,1.1-0.3,2.2-0.4,3.3c0,0.1,0,0.1,0,0.2
						c-0.1,1-0.3,2.1-0.4,3.1c0,0.3-0.1,0.5-0.1,0.8c-0.1,1-0.3,2-0.4,2.9c0,0.1,0,0.2,0,0.3c-0.1,1.1-0.3,2.1-0.4,3.2
						c0,0.3-0.1,0.5-0.1,0.8c-0.1,0.9-0.2,1.7-0.3,2.6c0,0.2-0.1,0.4-0.1,0.6c-0.1,1-0.3,2.1-0.4,3.1c0,0.1,0,0.3-0.1,0.4
						c-0.1,0.9-0.2,1.8-0.4,2.6c0,0.2-0.1,0.5-0.1,0.7c-0.3,2-0.6,4-0.8,5.9c0,0.2-0.1,0.5-0.1,0.7c-0.1,0.8-0.2,1.6-0.4,2.4
						c0,0.2,0,0.3-0.1,0.5c-0.1,0.9-0.3,1.9-0.4,2.8c0,0.2-0.1,0.4-0.1,0.6c-0.1,0.8-0.2,1.5-0.3,2.2c0,0.2-0.1,0.5-0.1,0.7
						c-0.1,0.9-0.3,1.8-0.4,2.7c0,0,0,0,0,0c-0.1,0.9-0.3,1.7-0.4,2.6c0,0.2-0.1,0.4-0.1,0.7c-0.1,0.7-0.2,1.5-0.4,2.2
						c0,0.1,0,0.3-0.1,0.4c-0.1,0.8-0.3,1.7-0.4,2.5c0,0.2-0.1,0.4-0.1,0.5c-0.1,0.7-0.2,1.3-0.3,2c0,0.2-0.1,0.4-0.1,0.5
						c-0.1,0.8-0.3,1.6-0.4,2.3c0,0.1,0,0.2,0,0.3c-0.1,0.7-0.2,1.3-0.4,2c0,0.2-0.1,0.4-0.1,0.6c-0.1,0.7-0.2,1.3-0.4,2
						c0,0.1,0,0.1,0,0.2c-0.1,0.7-0.3,1.4-0.4,2.1c0,0.2-0.1,0.3-0.1,0.5c-0.1,0.6-0.2,1.1-0.3,1.6c0,0.1-0.1,0.3-0.1,0.5
						c-0.1,0.7-0.3,1.3-0.4,1.9c0,0.1,0,0.2-0.1,0.3c-0.1,0.5-0.2,1.1-0.3,1.6c0,0.2-0.1,0.3-0.1,0.5c-0.3,1.2-0.5,2.4-0.8,3.5
						c0,0.1-0.1,0.3-0.1,0.4c-0.1,0.5-0.2,0.9-0.3,1.3c0,0.1,0,0.2-0.1,0.3c-0.1,0.5-0.3,1-0.4,1.5c0,0.1-0.1,0.2-0.1,0.3
						c-0.1,0.4-0.2,0.8-0.3,1.2c0,0.1-0.1,0.2-0.1,0.3c-0.1,0.5-0.3,0.9-0.4,1.3c0,0,0,0.1,0,0.1c-0.1,0.4-0.2,0.8-0.3,1.1
						c0,0.1-0.1,0.2-0.1,0.3c-0.1,0.3-0.2,0.7-0.3,1c0,0.1,0,0.1-0.1,0.2c-0.1,0.4-0.2,0.7-0.4,1c0,0.1-0.1,0.2-0.1,0.2
						c-0.1,0.3-0.2,0.5-0.3,0.7c0,0.1-0.1,0.2-0.1,0.2c-0.1,0.3-0.2,0.6-0.4,0.8c0,0,0,0.1-0.1,0.1c-0.1,0.2-0.2,0.4-0.3,0.6
						c0,0.1-0.1,0.1-0.1,0.2c-0.1,0.2-0.2,0.4-0.3,0.6c0,0,0,0,0,0.1c-0.1,0.2-0.2,0.4-0.3,0.5c0,0-0.1,0.1-0.1,0.1
						c-0.1,0.1-0.2,0.2-0.3,0.3c0,0-0.1,0.1-0.1,0.1c-0.1,0.1-0.2,0.2-0.3,0.3c0,0,0,0-0.1,0c-0.1,0.1-0.2,0.1-0.3,0.1
						c0,0-0.1,0-0.1,0c-0.1,0-0.2,0.1-0.3,0.1c-5.5,0.2-11.4,0.7-17.5,0.1c1.4-65.9,3.1-131.8,6.1-197.7
						C1538.4,808.1,1539.6,785.9,1541.5,763.9z"/>
					<path class="st13" d="M1586.7,748.8c-0.1,1.2-0.2,2.4-0.3,3.6c0,0.3-0.1,0.7-0.1,1c0,0.1,0,0.1,0,0.2c-0.1,1.5-0.3,3.1-0.4,4.6
						c0,0.1,0,0.1,0,0.2c-0.1,1.5-0.3,3.1-0.4,4.6c0,0.1,0,0.2,0,0.2c-14.6,0.9-29.3,1.2-43.9,0.6c4.2-49.6,12-98.8,29.7-145.2
						c2.4-6.3,6.5-13.7,13.3-13.6c4.6,0,8.4,3.7,11.4,7.2c13,15.1,22.9,32.6,32.3,50.1c5.9,11,11.7,22.1,17.3,33.3
						c-2.3,2.3-4.6,4.6-6.7,7.1c-5.6,6.5-10.4,13.7-14.8,21.1c-2.8-5.5-5.4-10.8-8-15.8c0,0,0-0.1,0-0.1c-0.3-0.7-0.7-1.3-1-1.9
						c0-0.1-0.1-0.2-0.1-0.2c-0.3-0.6-0.6-1.2-0.9-1.8c-0.1-0.1-0.1-0.2-0.2-0.3c-0.3-0.6-0.6-1.1-0.9-1.6c-0.1-0.1-0.1-0.2-0.2-0.4
						c-0.3-0.5-0.6-1.1-0.9-1.6c-0.1-0.1-0.1-0.2-0.2-0.3c-0.3-0.6-0.6-1.2-0.9-1.7c0,0-0.1-0.1-0.1-0.1c-1-1.9-2-3.7-3-5.5
						c0-0.1-0.1-0.1-0.1-0.2c-0.3-0.5-0.6-1-0.8-1.5c-0.1-0.1-0.2-0.3-0.2-0.4c-0.2-0.4-0.5-0.8-0.7-1.2c-0.1-0.2-0.2-0.3-0.3-0.5
						c-0.2-0.4-0.4-0.7-0.6-1.1c-0.1-0.2-0.2-0.3-0.3-0.5c-0.2-0.4-0.4-0.7-0.6-1c-0.1-0.2-0.2-0.3-0.3-0.5c-0.2-0.3-0.4-0.7-0.6-1
						c-0.1-0.2-0.2-0.3-0.3-0.5c-0.2-0.3-0.4-0.7-0.6-1c-0.1-0.1-0.2-0.3-0.2-0.4c-0.2-0.4-0.5-0.7-0.7-1.1c0-0.1-0.1-0.2-0.1-0.2
						c-0.3-0.4-0.6-0.9-0.8-1.3c0,0,0,0,0,0c-0.3-0.4-0.5-0.8-0.8-1.2c-0.1-0.1-0.2-0.2-0.2-0.3c-0.2-0.3-0.4-0.6-0.6-0.8
						c-0.1-0.1-0.2-0.3-0.3-0.4c-0.2-0.2-0.3-0.5-0.5-0.7c-0.1-0.1-0.2-0.3-0.3-0.4c-0.1-0.2-0.3-0.4-0.4-0.6
						c-0.1-0.1-0.2-0.3-0.3-0.4c-0.1-0.2-0.3-0.4-0.4-0.6c-0.1-0.1-0.2-0.3-0.3-0.4c-0.1-0.2-0.3-0.4-0.4-0.5
						c-0.1-0.1-0.2-0.3-0.3-0.4c-0.1-0.2-0.3-0.4-0.4-0.5c-0.1-0.1-0.2-0.2-0.3-0.3c-0.1-0.2-0.3-0.4-0.4-0.5
						c-0.1-0.1-0.1-0.2-0.2-0.3c-0.2-0.3-0.4-0.5-0.6-0.7c0,0,0,0.1,0,0.1c0,0.1,0,0.2,0,0.3c0,0.2,0,0.4-0.1,0.7c0,0.2,0,0.4,0,0.6
						c0,0.1,0,0.2,0,0.3c0,0.2,0,0.5-0.1,0.8c0,0,0,0,0,0c0,0.3-0.1,0.7-0.1,1.1c0,0.1,0,0.1,0,0.2c-0.1,1.7-0.3,4-0.6,6.7
						c0,0,0,0.1,0,0.1c-0.1,0.6-0.1,1.3-0.2,2c0,0.1,0,0.1,0,0.2c-0.9,10.6-2.3,26.9-4,46.9c0,0,0,0,0,0c-0.1,1.4-0.2,2.8-0.4,4.2
						c0,0.1,0,0.1,0,0.2c-0.3,2.9-0.5,5.9-0.8,8.9c0,0,0,0.1,0,0.1c-0.1,1.5-0.3,2.9-0.4,4.4
						C1586.7,748.7,1586.7,748.8,1586.7,748.8z"/>
					<g>
						<path class="st6" d="M1669.5,429.2c-2.2,0-4.5,0.2-6.7,0.5C1665,429.4,1667.3,429.3,1669.5,429.2z"/>
						<path class="st6" d="M1662.6,429.8c-0.5,0.1-1,0.2-1.5,0.2C1661.6,429.9,1662.1,429.8,1662.6,429.8z"/>
						<path class="st15" d="M1645,465.3c0.1-0.2,0.2-0.5,0.3-0.7c0.4-0.8,0.8-1.6,1.2-2.5c0.1-0.2,0.2-0.5,0.3-0.7
							c0.4-0.8,0.7-1.6,1.1-2.4c0.1-0.2,0.2-0.5,0.3-0.7c0.4-0.8,0.7-1.6,1.1-2.5c0.1-0.2,0.2-0.4,0.3-0.6c0.4-0.9,0.8-1.8,1.1-2.6
							c0.1-0.1,0.1-0.3,0.2-0.4c1.3-3.1,2.6-6.1,3.7-9.1c0.1-0.2,0.1-0.4,0.2-0.6c0.3-0.8,0.6-1.5,0.9-2.3c0.1-0.3,0.2-0.6,0.3-0.8
							c0.3-0.7,0.5-1.3,0.7-2c0.1-0.3,0.2-0.6,0.3-0.9c0.2-0.6,0.4-1.2,0.7-1.8c0.1-0.3,0.2-0.7,0.4-1c0.2-0.6,0.4-1.1,0.6-1.7
							c0.1-0.3,0.2-0.7,0.3-1c0.1-0.2,0.1-0.4,0.2-0.6c0.4-0.1,0.9-0.2,1.3-0.3c0.1,0,0.2,0,0.4-0.1c0.5-0.1,1-0.2,1.5-0.2
							c0,0,0.1,0,0.1,0c2.2-0.3,4.5-0.5,6.7-0.5c0,0,0,0,0,0l0,0c-4.3,14.9-10.8,29.2-19.2,42.3c-4.4,6.8-9.7,13.5-16.7,17.2
							c-0.2-0.4-0.4-0.9-0.6-1.3c3.8-6.3,7.3-12.7,10.5-19c0.1-0.2,0.2-0.3,0.2-0.5C1644.1,467.1,1644.6,466.2,1645,465.3z"/>
						<path class="st12" d="M1430.6,352.9c2.9-1.7,5.4-2,7.6-1.4c2.6,0.7,4.8,2.8,6.5,5.4c-8,21-11.3,43.8-9.7,66.2
							c1,0.1,1.9,0,2.8-0.1c0.9-17.8,3.8-36.1,7.6-54.1c3.2,0.2,6.6-0.9,8.7-3.2c4.6-5.1,5-12.6,6.8-19.2
							c3.6-12.6,13.7-23.2,26.1-27.3c12.4-4.1,26.8-1.7,37.3,6.3c6.2,4.8,10.9,11.2,17,16.1c24.4,19.8,61.2,9.4,91.1,19.5
							c2.7,0.9,5.4,2,7.5,4c3.5,3.4,4.4,8.6,4.7,13.5c0.8,13.8-2,27.7-8,40.1c-3.6,7.3-8.3,14.3-9,22.4c-1,11.6,6.4,21.7,14.4,30.5
							c0.5-1.1,1.1-2.1,1.6-3.2c-3.2,6.3-6.7,12.7-10.5,19c0.2,0.4,0.4,0.9,0.6,1.3c7-3.7,12.4-10.4,16.7-17.2
							c8.4-13.1,14.9-27.4,19.2-42.3c10.5,0,20.3,3.5,25.2,10.8c1.7,2.6,2.8,5.7,3.2,9.2c1.7,19.7-10.1,39.8-30.1,51.5
							c-2.9,1.7-6,3.2-9.6,3.7c-9,1.2-17.1-4.7-21.6-10.9c-1.3-1.8-2.5-3.9-3.5-6c-23.9,39.3-61.1,73.9-115.4,60.4
							c-66-16.4-82.7-67.8-79.8-124.9c-4.8,0.8-10.1-1.3-14.3-7.8c-3.9-5.9-4.7-13.3-5.1-20.3
							C1417.7,382.4,1417.8,360.2,1430.6,352.9z"/>
						<path class="st15" d="M1593.8,490.4c22-39.5,36.2-83.3,41.6-128.2c1.6,0.7,3.1,1.6,4.4,2.8c3.5,3.4,4.4,8.6,4.7,13.5
							c0.8,13.8-2,27.7-8,40.1c-3.6,7.3-8.3,14.3-9,22.4c-1,11.6,6.4,21.7,14.3,30.5c-2.7,5.3-5.7,10.6-8.9,15.9c0,0,0,0.1,0,0.1
							c0,0,0-0.1,0-0.1c-21.1,34.7-52.6,65.7-97,63.2c3.2-1.4,6.3-3,9.3-4.8C1566.7,533.2,1581.8,512.2,1593.8,490.4z"/>
						<path class="st6" d="M1445.9,358.8c-0.4-0.7-0.8-1.3-1.2-2C1445.1,357.5,1445.5,358.2,1445.9,358.8z"/>
						<path class="st6" d="M1446.9,361c-0.3-0.7-0.7-1.4-1-2C1446.3,359.6,1446.6,360.3,1446.9,361z"/>
						<path class="st6" d="M1447,361.1c0,0.1,0.1,0.2,0.1,0.3c0.1-0.3,0.1-0.6,0.2-0.8c-0.6,2.8-1.3,5.6-1.9,8.4
							c0.5-2.5,1.1-5,1.7-7.5C1447.1,361.3,1447,361.2,1447,361.1z"/>
						<path class="st15" d="M1444.7,356.9c0.4,0.6,0.8,1.3,1.2,2c0,0,0,0.1,0,0.1c0.4,0.7,0.7,1.3,1,2c0,0,0,0.1,0.1,0.1
							c0,0.1,0.1,0.2,0.1,0.3c-0.6,2.5-1.1,5-1.7,7.5c0,0,0,0,0,0l0,0c-3.9,18-6.7,36.3-7.6,54.1c-0.9,0.2-1.9,0.2-2.8,0.1
							C1433.4,400.7,1436.8,377.9,1444.7,356.9L1444.7,356.9C1444.7,356.9,1444.7,356.9,1444.7,356.9z"/>
						<path class="st6" d="M1659.2,430.9c0.2-0.6,0.4-1.1,0.6-1.7c-0.1,0.4-0.2,0.7-0.4,1.1c0.4-0.1,0.9-0.2,1.3-0.3
							c-0.4,0.1-0.9,0.2-1.3,0.3C1659.4,430.5,1659.3,430.7,1659.2,430.9z"/>
						<path class="st6" d="M1655.8,440.2c-0.3,0.8-0.6,1.5-0.9,2.3C1655.2,441.7,1655.5,440.9,1655.8,440.2z"/>
						<path class="st6" d="M1656.9,437.4c-0.2,0.6-0.5,1.3-0.7,2C1656.4,438.7,1656.7,438,1656.9,437.4z"/>
						<path class="st6" d="M1657.9,434.6c-0.2,0.6-0.4,1.2-0.7,1.8C1657.5,435.8,1657.7,435.2,1657.9,434.6z"/>
						<path class="st6" d="M1654.7,443c-1.2,3-2.4,6-3.7,9.1C1652.3,449,1653.6,446,1654.7,443z"/>
						<path class="st6" d="M1650.8,452.5c-0.4,0.9-0.8,1.8-1.1,2.6C1650.1,454.3,1650.4,453.4,1650.8,452.5z"/>
						<path class="st6" d="M1645,465.3c-0.4,0.9-0.9,1.8-1.3,2.7C1644.1,467.1,1644.6,466.2,1645,465.3z"/>
						<path class="st6" d="M1646.5,462.1c-0.4,0.8-0.8,1.6-1.2,2.5C1645.7,463.8,1646.1,463,1646.5,462.1z"/>
						<path class="st6" d="M1649.4,455.8c-0.4,0.8-0.7,1.6-1.1,2.5C1648.7,457.4,1649,456.6,1649.4,455.8z"/>
						<path class="st6" d="M1658.9,431.9c-0.2,0.6-0.4,1.1-0.6,1.7C1658.5,433.1,1658.7,432.5,1658.9,431.9z"/>
						<path class="st6" d="M1648,459c-0.4,0.8-0.7,1.6-1.1,2.4C1647.2,460.6,1647.6,459.8,1648,459z"/>
					</g>
				</g>
			</g>
			<g>
				<g>
					<circle class="st16" cx="1146.4" cy="895.7" r="370"/>
					<path class="st17" d="M1296.1,1036.2c15.3,13.5,38.2,22.6,41.5,42.7c0.9,5.2,0.2,10.7,2.1,15.6c5.2,13.2,23.3,13.2,37.5,13.8
						c20.5,0.8,40.6,7.7,57.4,19.4c-7.5,9.3-15.4,18.2-23.7,26.7c65.2-66.7,105.5-158,105.5-258.6c0-16.9-1.2-33.6-3.4-49.9
						C1454.4,923.8,1381.4,990.8,1296.1,1036.2z"/>
					<path class="st18" d="M1023.9,1234.4c-1.8-21.8-3.9-44.4-14.8-63.4c-10.8-18.8-29.2-32.1-41.2-50.3
						c-10.9-16.5-16.3-36.8-30.6-50.5c-9.3-8.9-21.5-14.2-32.7-20.6c-24.1-13.8-45.4-34.3-72.7-39.7c-10.7-2.1-21.8-1.8-32.4-4.3
						c-2.4-0.6-4.9-1.3-7.3-2.3c18.3,60.1,51.4,113.8,95.2,156.6c22.3-4.8,47,2.3,62.8,18.9c12.2,12.8,18.7,29.6,26.3,45.6
						c15.2,7.8,31,14.7,47.3,20.4C1024.3,1241.4,1024.2,1237.8,1023.9,1234.4z"/>
					<path class="st18" d="M956.4,1030.3c6.2,5,12.3,10.4,19.9,12.9c12.5,4.1,26.1-0.6,38.4-5.3c15.7-5.9,31.3-11.8,47-17.7
						c11.8-4.5,24-9.2,32.6-18.4c5.9-6.3,9.9-14.5,16.7-19.9c12.1-9.6,29.4-7.9,44.3-11.9c27.9-7.5,71.7-59.2,98.4-26.8
						c11.1,13.5,16.4,31.4,28.6,45.1c6.5,7.3,13.4,15.5,22.5,19.7c1.5,0.7,26.6,4.4,24.3,1.3c-16-22.1-22.7-50.6-18.3-77.5
						c0.7-4.3,1.7-8.7,4.2-12.3c8.9-13,28.5-8.9,44-6.5c16.4,2.6,33.4,1.6,49.4-2.9c11.6-3.3,24.5-11.3,23.7-23.2
						c-0.6-8.8-8.6-15.5-10.2-24.2c-3.1-16.8,17.3-27,33.2-33.4c17.9-7.3,35.6-18.6,47.4-33.6c-36.5-130.3-142.4-231.5-275.4-261.1
						c-3.2,1.5-6.2,3.3-9.1,5.5c-11.1,8.6-17.8,21.7-28.3,31c-8.4,7.4-18.8,12.1-29.2,16c-26.4,9.8-54.5,15-82.7,15.4
						c-22,0.3-44.3-2.3-65.8,2.1c-21.6,4.4-43.1,17.8-49.2,38.9c-1.9,6.6-2.2,13.6-3.4,20.4c-2.1,11.4-7,22-11.8,32.5
						c-5.7,12.4-11.4,24.8-17.1,37.2c-2.2,4.8-4.5,9.8-8.4,13.4c-5.2,4.9-12.5,6.7-19.4,8.1c-14.4,3-28.9,5.3-43.5,6.9
						c-3.6,0.4-7.5,0.7-10.5-1.3c-3.7-2.5-4.6-7.4-5.7-11.7c-3.1-12.5-10.5-24.2-21.1-31.4c-29.1,52.8-45.6,113.5-45.6,178.1
						c0,24.7,2.4,48.9,7.1,72.3c9.9,2.4,20.7,3.3,30.5,4.2C865.8,977,916,997.5,956.4,1030.3z"/>
					<path class="st19" d="M1448.9,795.9c-12,12.3-33.6,10.7-45.6,23.1c-15.2,15.7-6.7,44.8-21.7,60.6
						c-19.4,20.4-59.2,1.5-79.2,21.3c-6.1,6-8.9,14.5-13.6,21.7c-4.6,7.2-12.8,13.6-21.1,11.4c-7.7-2.1-11.7-10.4-17.7-15.6
						c-13-11.2-32.8-6.2-49.1-0.7c-24.3,8.3-48.5,16.6-72.8,24.9c-12.6,4.3-25.4,8.7-36.4,16.4c-16.1,11.2-27.1,28.6-43.3,39.8
						c-31.8,22-75.4,14.7-111-0.5c-35.5-15.2-68.7-37.6-106.7-44.5c-16.5-3-33.3-2.9-50.1-2.1c0.8,5.5,1.8,10.9,2.8,16.3
						c9.9,2.4,20.7,3.3,30.5,4.2c51.8,4.8,102.1,25.3,142.5,58.1c6.2,5,12.3,10.4,19.9,12.9c12.5,4.1,26.1-0.6,38.4-5.3
						c15.7-5.9,31.3-11.8,47-17.7c11.8-4.5,24-9.2,32.6-18.4c5.9-6.3,9.9-14.5,16.7-19.9c12.1-9.6,29.4-7.9,44.3-11.9
						c27.9-7.5,71.7-59.2,98.4-26.8c11.1,13.5,16.4,31.4,28.6,45.1c6.5,7.3,13.4,15.5,22.5,19.7c1.5,0.7,26.6,4.4,24.3,1.3
						c-16-22.1-22.7-50.6-18.3-77.5c0.7-4.3,1.7-8.7,4.2-12.3c8.9-13,28.5-8.9,44-6.5c16.4,2.6,33.4,1.6,49.4-2.9
						c11.6-3.3,24.5-11.3,23.7-23.2c-0.6-8.8-8.6-15.5-10.2-24.2c-3.1-16.8,17.3-27,33.2-33.4c17.9-7.3,35.6-18.6,47.4-33.6
						c-2.6-9.4-5.7-18.7-9-27.8C1478,775.8,1461.9,782.7,1448.9,795.9z"/>
					<path class="st18" d="M1339.7,1094.5c-1.9-4.9-1.3-10.4-2.1-15.6c-3.3-20.3-26.6-29.3-41.8-43c-21.6-19.4-29.6-52.3-54.6-67
						c-4.4-2.6-9.4-4.5-14.4-3.6c-7.8,1.4-12.9,9.5-13.3,17.4c-0.5,7.9,2.7,15.5,6.1,22.6c14.5,30.1,35.1,58,41,90.8
						c2.1,12,2.3,24.5,6.8,35.8c2.9,7.1,7.5,13.6,9.4,21c1.7,6.4,1.3,13.3,3.6,19.6c5.4,14.7,22.8,20.3,38,24
						c10.7,2.6,21.3,5.2,32,7.8c31.9-21.1,60.3-47,84.2-76.7c-16.8-11.7-36.9-18.6-57.4-19.4
						C1363,1107.7,1344.9,1107.7,1339.7,1094.5z"/>
					<path class="st19" d="M1487.2,915.9c-6.4,9.4-9,20.8-11.5,31.9c-5.3,23.8-10.6,47.6-15.9,71.4c-0.9,4-1.8,8.2-4.2,11.5
						c-7.2,10.2-23.7,8.6-32.5,17.4c-9.2,9.2-5.2,26.1,5.1,33.9c9.3,7.1,21.6,8.4,33.4,7.4c34.2-55.6,54.2-120.9,54.7-190.9
						C1504.7,902.2,1491.5,909.7,1487.2,915.9z"/>
				</g>
				<g>
					<path class="st17" d="M887.6,1160c26.2,25.7,56.2,47.5,89.2,64.5c-7.7-16.1-14.1-32.9-26.3-45.6
						C934.6,1162.3,909.8,1155.3,887.6,1160z"/>
					<path class="st17" d="M1280.4,1172.5c-2.3-6.2-1.9-13.2-3.6-19.6c-2-7.4-6.5-13.9-9.4-21c-4.6-11.3-4.7-23.8-6.8-35.8
						c-2.3-13-7-25.3-12.6-37.2c-93.8,38.8-201,48.9-299.1,26c6.9,11.5,11.8,24.5,19.2,35.8c12,18.1,30.4,31.4,41.2,50.3
						c10.9,19,13,41.6,14.8,63.4c0.3,3.4,0.4,7,0.1,10.5c-6-2.1-11.8-4.3-17.7-6.7c43.2,17.7,90.5,27.4,140,27.4
						c75.4,0,145.5-22.6,204-61.3c-10.7-2.6-21.3-5.2-32-7.8C1303.2,1192.8,1285.8,1187.2,1280.4,1172.5z"/>
					<path class="st19" d="M1023.9,1234.4c-1.8-21.8-3.9-44.4-14.8-63.4c-10.8-18.8-29.2-32.1-41.2-50.3
						c-7.4-11.3-12.3-24.3-19.2-35.8c-54.6-12.7-106.3-35.7-151.5-69.5c-0.5-0.3-0.9-0.7-1.4-1.1c0.6,1.7,1.2,3.4,1.8,5.2
						c0.1,0.3,0.2,0.5,0.3,0.8c0.6,1.7,1.2,3.5,1.9,5.2c0.1,0.2,0.2,0.4,0.3,0.7c1.2,3.2,2.5,6.5,3.8,9.7c0.1,0.3,0.3,0.7,0.4,1
						c2.1,5.1,4.3,10.1,6.6,15.1c0.2,0.3,0.3,0.7,0.5,1c2.3,5,4.8,9.9,7.3,14.7c0.2,0.3,0.3,0.6,0.5,0.9c2.6,4.9,5.3,9.7,8,14.4
						c0.1,0.2,0.3,0.5,0.4,0.7c2.8,4.8,5.8,9.5,8.8,14.2c0.1,0.1,0.1,0.2,0.2,0.3c5.2,8,10.7,15.7,16.5,23.2c0,0,0,0,0,0
						c3.5,4.5,7.1,9,10.8,13.3c0,0,0.1,0.1,0.1,0.1c3.7,4.3,7.5,8.6,11.4,12.8c0,0,0.1,0.1,0.1,0.1c3.9,4.2,7.9,8.3,12,12.3
						c0,0,0,0,0,0c22.3-4.8,47,2.3,62.8,18.9c12.2,12.8,18.7,29.6,26.3,45.6c0,0,0,0,0,0c1.4,0.7,2.8,1.4,4.2,2.1
						c0.8,0.4,1.7,0.8,2.5,1.3c1.5,0.7,2.9,1.4,4.4,2.1c0.6,0.3,1.2,0.5,1.8,0.8c3.2,1.5,6.5,3,9.8,4.4c0.2,0.1,0.4,0.2,0.7,0.3
						c1.8,0.8,3.7,1.6,5.5,2.3c0.3,0.1,0.5,0.2,0.8,0.3c5.8,2.4,11.7,4.6,17.7,6.7C1024.3,1241.4,1024.2,1237.8,1023.9,1234.4z"/>
					<path class="st19" d="M1434.6,1127.6c-16.8-11.7-36.9-18.6-57.4-19.4c-14.2-0.6-32.3-0.6-37.5-13.8c-1.9-4.9-1.3-10.4-2.1-15.6
						c-3.3-20.1-26.2-29.1-41.5-42.7c-15.2,8.1-30.8,15.5-46.8,22.2c-0.5,0.2-1,0.4-1.4,0.6c5.7,11.9,10.3,24.1,12.6,37.2
						c2.1,12,2.3,24.5,6.8,35.8c2.9,7.1,7.5,13.6,9.4,21c1.7,6.4,1.3,13.3,3.6,19.6c5.4,14.7,22.8,20.3,38,24
						c10.7,2.6,21.3,5.2,32,7.8c0,0,0,0,0,0c2-1.3,3.9-2.6,5.9-4c0,0,0.1-0.1,0.1-0.1c9.8-6.8,19.2-14,28.3-21.6
						c0,0,0.1-0.1,0.1-0.1c9.1-7.7,17.8-15.7,26.1-24.2c0,0,0,0,0,0C1419.2,1145.8,1427.1,1136.9,1434.6,1127.6z"/>
				</g>
			</g>
			<g>
				<path class="st14" d="M545.7,873.9c-8.2-28.9-51-23.4-51.6,6.7c-0.1,4.2,0,8.7,0.3,13.6c4.8,75,73.8,238.2,112.1,287.3
					c0,0-46.9,431.3-13,452.6c33.9,21.3,111.8-171,111.8-171l26.2,6.7c0,0,161.4,290,197.6,261c36.2-29-50.2-427.6-50.2-427.6
					s150.1,128.4,233.1,101.4s-231.7-182.8-292.2-276.1C819.8,1128.3,601,1068.8,545.7,873.9z"/>
				<path class="st20" d="M931.8,1228.7c-48.9-35.7-93-71.1-112-100.4c0,0-109.1-29.7-192.7-115.8c-32.4,7.9-60.4,33.9-69.1,66.3
					c-0.9,3.5-1.6,7-2.2,10.5c17.9,39.6,36.5,73.8,50.7,92.1c0,0-7.1,64.9-13.7,145.7c37.9,31.9,85,53,133.8,62.7
					c55.7,11.1,113.5,8.1,169.2-3.5c-9.6-49.1-17-83.2-17-83.2s10.3,8.8,27,21.3C903.1,1290.8,912.2,1256.1,931.8,1228.7z"/>
				<path class="st21" d="M661.1,1147.4c25.7,38.7,79.4,48.6,125.1,40.3c23.4-4.3,45.9-12.2,68.2-20.7
					c-14.8-13.7-26.8-26.7-34.6-38.7c0,0-77.9-21.2-152.5-79.7c-6.7,7.8-12.1,16.8-15.5,26.6C643.7,1099,647.2,1126.5,661.1,1147.4z
					"/>
				<path class="st7" d="M625,1586.6c-15.7-6-30.6-14.9-41.3-28c-0.9-1.1-1.7-2.2-2.5-3.3c0.4,42.9,3.8,73.3,12.2,78.6
					c12.6,7.9,31.3-13.8,49.9-44.1C637.2,1590.8,630.9,1588.9,625,1586.6z"/>
				<path class="st7" d="M854.6,1666.2c32.2,43.9,61.5,74.9,74.5,64.5c9.7-7.8,10.6-42.3,6.7-88.6c-17.4,15.9-40.5,25.5-64.1,25.9
					C866,1668,860.2,1667.5,854.6,1666.2z"/>
				<path class="st7" d="M726.7,1389.8c-48.8-9.7-96-30.7-133.8-62.7c-5.6,68-10.1,119.3-10.7,180.3c23.7,13.7,51.2,39.5,84.7,40
					c25.7-47.7,38.5-84.4,38.5-84.4l26.2,6.7c0,0,30.3,54.4,67.6,113.8c35.6,6.1,73.8-1.2,107.8-14.8c6.5-2.6,13-5.6,19-9.2
					c-8.7-59.7-20.4-124-30-173.2C840.2,1397.9,782.4,1400.9,726.7,1389.8z"/>
				<path class="st22" d="M649.8,1545c-7.1,14.3-14.8,28.4-22.9,42.3c5.3,1.9,10.9,3.4,16.4,2.6c8-13.1,16-27.8,23.4-42.5
					c0,0,0,0,0,0C660.9,1547.3,655.3,1546.5,649.8,1545z"/>
				<path class="st9" d="M626.9,1587.3c-8,13.8-16.3,27.5-24.6,41.1c-1.5,2.4-2.9,4.8-4.4,7.2c0.1,0,0.3,0,0.4,0.1c0,0,0,0,0.1,0
					c0.4,0,0.8,0,1.2,0c0.1,0,0.2,0,0.3,0c0.4,0,0.7-0.1,1.1-0.1c0,0,0.1,0,0.1,0c0.4-0.1,0.8-0.2,1.2-0.3c0.1,0,0.2-0.1,0.3-0.1
					c0.4-0.1,0.8-0.2,1.2-0.4c0,0,0.1,0,0.1,0c0.4-0.2,0.9-0.3,1.3-0.5c0.1,0,0.2-0.1,0.3-0.1c0.4-0.2,0.8-0.4,1.2-0.6
					c0,0,0.1,0,0.1-0.1c0.4-0.2,0.9-0.5,1.3-0.8c0.1-0.1,0.2-0.1,0.3-0.2c0.4-0.3,0.8-0.5,1.2-0.8c0,0,0.1-0.1,0.1-0.1
					c0.5-0.3,0.9-0.7,1.4-1c0.1-0.1,0.2-0.1,0.3-0.2c0.4-0.3,0.9-0.7,1.3-1c0.1,0,0.1-0.1,0.2-0.1c0.5-0.4,1-0.8,1.4-1.2
					c0.1-0.1,0.2-0.2,0.3-0.2c0.4-0.4,0.9-0.8,1.3-1.2c0,0,0.1-0.1,0.1-0.1c0.5-0.5,1-1,1.5-1.5c0.1-0.1,0.2-0.2,0.2-0.2
					c0.5-0.5,0.9-1,1.4-1.5c0,0,0.1-0.1,0.1-0.1c0.5-0.5,1-1.1,1.5-1.7c0.1-0.1,0.1-0.2,0.2-0.2c0.5-0.5,1-1.1,1.4-1.7
					c0,0,0.1-0.1,0.1-0.1c0.5-0.6,1.1-1.2,1.6-1.9c0.1-0.1,0.1-0.1,0.2-0.2c0.5-0.6,1-1.2,1.5-1.9c0,0,0.1-0.1,0.1-0.1
					c0.5-0.7,1.1-1.4,1.6-2.1c0-0.1,0.1-0.1,0.1-0.2c0.5-0.7,1-1.4,1.6-2.1c0,0,0.1-0.1,0.1-0.1c0.6-0.7,1.1-1.5,1.7-2.3
					c0,0,0.1-0.1,0.1-0.1c0.5-0.8,1.1-1.5,1.6-2.3c0,0,0-0.1,0.1-0.1c0.6-0.8,1.1-1.6,1.7-2.5c0,0,0,0,0,0c0.6-0.8,1.1-1.7,1.7-2.5
					c0,0,0-0.1,0.1-0.1c1.1-1.7,2.3-3.5,3.4-5.3c0,0,0,0,0,0c1.2-1.8,2.3-3.7,3.5-5.6c0,0,0,0,0,0
					C637.8,1590.7,632.3,1589.3,626.9,1587.3z"/>
				<path class="st9" d="M695,1459.3c-11.1-0.4-16.8,12.7-20,23.3c-6.5,21.6-15.2,42.3-25.2,62.5c5.5,1.4,11.1,2.3,17,2.4
					c0,0,0,0,0,0c20.4-40.2,36.7-79.8,38.4-84.1C702,1461.2,698.7,1459.4,695,1459.3z"/>
				<g>
					<path class="st14" d="M887.2,996.2c3.9,94.7-27.1,151.5-114.1,151.5s-150.2-71.5-150.2-158.5s63.2-156.6,150.2-156.6
						S883.9,916.7,887.2,996.2z"/>
					<path class="st8" d="M666.9,1116.5c-30.9-41.6-62.1-85.6-71-136.7c-3.9-22.1-3.3-45.5,5.7-66.1s27.3-37.7,49.4-41.6
						c8-19.7,30.2-35.4,50.5-41.8c20.3-6.4,41.9-8.6,61.8-16.1c18.3-7,34.6-18.3,52.4-26.4c17.8-8.1,38.5-12.9,56.9-6.1
						c19.5,7.2,32.7,26.8,35.9,47.3s-2.2,41.6-11.5,60.2c-13.6,27.4-37.9,51.9-68.3,55.8c-9-4.1-14.1,6.5-13.4,16.3
						c0.7,9.8,7.7,17.9,14.1,25.4s12.7,16.5,11.7,26.3c-1.2,11.3-14,19.9-24.9,16.6c-11.4-3.4-17.7-16.5-28.8-20.8
						c-11.2-4.3-25,2.6-29.5,13.8c-4.4,11.2,0.1,24.8,9.6,32.2c9.5,7.4,22.9,8.7,34.2,4.6c2.6-0.9,5.2-2.1,7.9-2.1
						c5.4,0.1,9.7,5,10.7,10.3c1,5.3-0.6,10.7-2.6,15.6c-12.2,30.6-40.3,54.4-72.5,61.3C713.1,1151.3,686.6,1142.9,666.9,1116.5z"/>
				</g>
				<g>
					<path class="st22" d="M558,1078.8c2.5-9.4,6.6-18.2,12-26.2c-31.8-58.4-58.3-119.7-72.9-184.1c-1.8,3.4-2.9,7.4-2.9,12
						c-0.1,4.2,0,8.7,0.3,13.6c3,47,31.3,128.7,61.3,195.2c0,0,0,0,0,0C556.4,1085.8,557.1,1082.3,558,1078.8z"/>
					<path class="st21" d="M607.4,1176.6c4.3-13.7,10.1-27.9,7.4-42c-1.7-8.6-6.4-16.2-10.9-23.7c-11.7-19.1-23-38.5-33.8-58.3
						c-5.4,8-9.5,16.8-12,26.2c-0.9,3.5-1.6,7-2.2,10.5c0,0,0,0,0,0c0.6,1.3,1.1,2.5,1.7,3.7c0.4,0.8,0.7,1.5,1.1,2.3
						c0.3,0.7,0.6,1.3,0.9,2c0.4,0.8,0.7,1.6,1.1,2.3c0.3,0.7,0.6,1.3,0.9,2c0.5,1,0.9,1.9,1.4,2.9c0.5,1,0.9,2,1.4,3
						c0.3,0.7,0.7,1.4,1,2.2c0.3,0.7,0.6,1.3,1,2c0.3,0.7,0.7,1.4,1,2.1c0.3,0.7,0.7,1.4,1,2.1c0.4,0.7,0.7,1.5,1.1,2.2
						c0.6,1.1,1.1,2.2,1.7,3.3c0.3,0.6,0.6,1.3,0.9,1.9c0.4,0.7,0.7,1.4,1.1,2.1c0.3,0.6,0.6,1.3,1,1.9c0.4,0.7,0.7,1.5,1.1,2.2
						c0.3,0.5,0.6,1.1,0.8,1.6c0.6,1.1,1.2,2.3,1.8,3.4c0.3,0.5,0.6,1.1,0.8,1.6c0.4,0.7,0.8,1.4,1.1,2.1c0.3,0.5,0.6,1.1,0.8,1.6
						c0.4,0.8,0.9,1.6,1.3,2.4c0.2,0.4,0.4,0.8,0.7,1.2c0.6,1.1,1.2,2.2,1.8,3.3c0.2,0.4,0.5,0.9,0.7,1.3c0.4,0.7,0.8,1.5,1.2,2.2
						c0.2,0.4,0.5,0.9,0.7,1.3c0.5,0.8,1,1.7,1.4,2.5c0.2,0.3,0.3,0.5,0.5,0.8c0.6,1,1.2,2.1,1.8,3.1c0.2,0.3,0.4,0.7,0.6,1
						c0.4,0.7,0.9,1.4,1.3,2.1c0.2,0.3,0.4,0.7,0.6,1c0.5,0.9,1,1.7,1.6,2.5c0.1,0.1,0.2,0.3,0.3,0.4c0.6,0.9,1.2,1.9,1.8,2.8
						c0.2,0.3,0.4,0.6,0.5,0.8c0.4,0.7,0.9,1.3,1.3,2c0.2,0.3,0.4,0.6,0.5,0.8c0.5,0.8,1.1,1.6,1.6,2.4c0,0.1,0.1,0.1,0.1,0.2
						c0.6,0.8,1.1,1.6,1.7,2.4c0.2,0.2,0.3,0.5,0.5,0.7c0.4,0.6,0.8,1.1,1.2,1.7c0.2,0.2,0.3,0.4,0.5,0.7c0.4,0.5,0.8,1,1.2,1.6
						C606.5,1179.4,606.9,1178,607.4,1176.6z"/>
				</g>
				<g>
					<path class="st22" d="M907.2,1289.8c-1.8,11.4-2.2,23-1.3,34.5c47,35.3,144.8,100,206.1,80c1.1-0.4,2.2-0.8,3.2-1.2
						c-67.4-18.2-130.9-50.7-185-94.7C922.7,1302.3,915,1295.9,907.2,1289.8z"/>
					<path class="st22" d="M906.9,1568.6c-5.5,2.2-11.1,4.2-16.8,6.1c7,27.9,14.2,55.8,21.5,83.6c8.8-4.2,17-9.7,24.2-16.3
						c1.1,13,1.8,25.1,2.1,35.9c-0.8-32.8-5.9-77.2-12.8-124c0.3,1.9,0.5,3.7,0.8,5.6C919.9,1563.1,913.3,1566.1,906.9,1568.6z"/>
					<path class="st21" d="M907.2,1289.8c-18.4-14.2-38.2-26.2-60.9-26.6c-6.5,43.3-3.3,87.1,3.7,130.5c15.4-1.8,30.7-4.3,45.9-7.5
						c0,0,0,0,0,0c-6.9-35.2-12.6-62.7-15.3-75.5c0-0.1,0-0.1,0-0.2c-0.5-2.1-0.8-3.8-1.1-5.1c0-0.1,0-0.2-0.1-0.2
						c-0.1-0.2-0.1-0.5-0.1-0.7c0,0,0,0,0,0c-0.2-0.7-0.3-1.2-0.3-1.4c0-0.1,0-0.1,0-0.1s6.8,5.8,18.3,14.7c0,0,0,0,0.1,0
						c0.9,0.7,1.8,1.4,2.7,2.1c0,0,0,0,0,0c0.9,0.7,1.9,1.4,2.9,2.2c0,0,0,0,0,0c1,0.7,2,1.5,3,2.3c0,0,0,0,0,0
						C904.9,1312.8,905.4,1301.2,907.2,1289.8z"/>
					<path class="st9" d="M911.5,1658.3c6.2,23.6,12.6,47.3,19,70.9c0.1-0.1,0.2-0.2,0.2-0.3c0.1-0.1,0.2-0.3,0.3-0.4
						c0.2-0.2,0.3-0.4,0.5-0.7c0.1-0.2,0.2-0.3,0.3-0.5c0.1-0.2,0.3-0.5,0.4-0.7c0.1-0.2,0.2-0.4,0.3-0.6c0.1-0.3,0.3-0.5,0.4-0.8
						c0.1-0.2,0.2-0.4,0.3-0.6c0.1-0.3,0.2-0.6,0.4-0.9c0.1-0.2,0.2-0.4,0.3-0.7c0.1-0.3,0.2-0.6,0.3-1c0.1-0.2,0.2-0.5,0.2-0.7
						c0.1-0.3,0.2-0.7,0.3-1.1c0.1-0.2,0.1-0.5,0.2-0.7c0.1-0.4,0.2-0.8,0.3-1.2c0.1-0.2,0.1-0.5,0.2-0.7c0.1-0.4,0.2-0.9,0.3-1.3
						c0-0.2,0.1-0.5,0.1-0.7c0.1-0.5,0.2-1,0.3-1.5c0-0.2,0.1-0.4,0.1-0.6c0.1-0.6,0.2-1.3,0.3-1.9c0-0.1,0-0.2,0.1-0.4
						c0.3-2.4,0.6-4.9,0.8-7.7c0-0.1,0-0.2,0-0.4c0.1-0.8,0.1-1.6,0.2-2.4c0-0.2,0-0.4,0-0.6c0-0.8,0.1-1.5,0.1-2.3
						c0-0.2,0-0.5,0-0.7c0-0.8,0.1-1.5,0.1-2.3c0-0.2,0-0.5,0-0.7c0-0.8,0-1.6,0.1-2.4c0-0.2,0-0.5,0-0.7c0-0.8,0-1.7,0-2.5
						c0-0.2,0-0.5,0-0.7c0-0.9,0-1.8,0-2.7c0-0.2,0-0.4,0-0.6c0-1,0-1.9,0-2.9c0-0.2,0-0.3,0-0.5c0-1,0-2.1-0.1-3.2
						c0-0.1,0-0.2,0-0.3c-0.3-10.8-1-22.9-2.1-35.9C928.6,1648.6,920.4,1654.1,911.5,1658.3z"/>
					<path class="st9" d="M850,1393.7c3.7,23,8.5,46,13.5,68.7c8.3,37.6,17.2,75,26.5,112.3c5.7-1.8,11.3-3.9,16.8-6.1
						c6.5-2.6,13-5.6,19-9.2c-0.3-1.9-0.5-3.7-0.8-5.6c0-0.1,0-0.1,0-0.2c-0.3-1.7-0.5-3.4-0.8-5.2c-0.1-0.4-0.1-0.7-0.2-1.1
						c-0.2-1.4-0.4-2.9-0.7-4.3c-0.1-0.4-0.1-0.9-0.2-1.3c-0.2-1.4-0.4-2.8-0.6-4.2c-0.1-0.4-0.1-0.8-0.2-1.3
						c-0.2-1.5-0.5-3.1-0.7-4.6c0-0.3-0.1-0.5-0.1-0.8c-0.6-3.7-1.2-7.4-1.8-11.1c0-0.1,0-0.2-0.1-0.4c-0.3-1.7-0.5-3.3-0.8-5
						c-0.1-0.4-0.1-0.8-0.2-1.2c-0.2-1.4-0.5-2.8-0.7-4.3c-0.1-0.4-0.1-0.9-0.2-1.3c-0.2-1.4-0.5-2.9-0.7-4.3
						c-0.1-0.4-0.1-0.8-0.2-1.2c-0.3-1.7-0.6-3.3-0.8-5c0-0.1,0-0.2-0.1-0.3c-0.6-3.7-1.2-7.4-1.9-11.1c0-0.3-0.1-0.5-0.1-0.8
						c-0.3-1.5-0.5-3.1-0.8-4.6c-0.1-0.4-0.1-0.7-0.2-1.1c-0.2-1.4-0.5-2.8-0.7-4.2c-0.1-0.4-0.1-0.8-0.2-1.3
						c-0.3-1.5-0.5-2.9-0.8-4.4c-0.1-0.3-0.1-0.6-0.2-0.9c-1-5.4-1.9-10.8-2.9-16.1c0-0.2-0.1-0.4-0.1-0.6c-0.3-1.5-0.5-3-0.8-4.5
						c-0.1-0.3-0.1-0.7-0.2-1c-0.3-1.4-0.5-2.8-0.8-4.3c-0.1-0.3-0.1-0.6-0.2-0.9c-0.3-1.5-0.6-3-0.8-4.5c0-0.2-0.1-0.4-0.1-0.6
						c-1-5.2-1.9-10.3-2.9-15.3c0-0.2-0.1-0.4-0.1-0.6c-0.3-1.5-0.6-3-0.8-4.4c0-0.2-0.1-0.4-0.1-0.6c-0.3-1.5-0.6-3-0.8-4.4
						c0-0.1-0.1-0.3-0.1-0.4c-1.6-8.3-3.1-16.3-4.6-23.9c0,0,0,0,0,0C880.7,1389.4,865.4,1391.9,850,1393.7z"/>
				</g>
			</g>
			<g>
				<g>
					<path class="st23" d="M1691.5,873.9c8.2-28.9,51-23.4,51.6,6.7c0.1,4.2,0,8.7-0.3,13.6c-4.8,75-73.8,238.2-112.1,287.3
						c0,0,46.9,431.3,13,452.6c-33.9,21.3-111.8-171-111.8-171l-26.2,6.7c0,0-161.4,290-197.6,261c-36.2-29,50.2-427.6,50.2-427.6
						s-150.1,128.4-233.1,101.4s231.7-182.8,292.2-276.1C1417.4,1128.3,1636.3,1068.8,1691.5,873.9z"/>
					<path class="st7" d="M1510.6,1389.8c-55.7,11.1-113.5,8.1-169.2-3.5c-23.1,118.5-58.8,323.9-33.2,344.4
						c36.2,29,197.6-261,197.6-261l26.2-6.7c0,0,77.9,192.4,111.8,171c30.8-19.4-5.2-377.4-12-442.5c2.2,21.3,7.6,73.8,12.7,135.6
						C1606.5,1359.1,1559.4,1380.1,1510.6,1389.8z"/>
					<path class="st9" d="M1570.1,1513.9l-19.1-6.9c23.9,52.3,64.5,132.1,88.6,128.6c-24.8-31.1-52.2-90.5-52.2-90.5L1570.1,1513.9z
						"/>
					<path class="st9" d="M1345.4,1590.6c3.1-11.8,3.9-24.1,4.8-36.2c0.3-4.4,0.6-8.9-0.8-13c-1.5-4.2-4.6-7.6-8-10.6
						c-6.8-5.9-14.9-10.5-23.6-12.7c-16,99.4-26.9,198.6-9.6,212.5c0.9,0.7,1.9,1.3,3,1.6c3.4-37.6,9.7-75.2,23-110.5
						C1338.1,1611.4,1342.6,1601.3,1345.4,1590.6z"/>
					<path class="st5" d="M1305.4,1228.7c48.9-35.7,93-71.1,112-100.4c0,0,109.1-29.7,192.7-115.8c32.4,7.9,60.4,33.9,69.1,66.3
						c0.9,3.5,1.6,7,2.2,10.5c-17.9,39.6-36.5,73.8-50.7,92.1c0,0,7.1,64.9,13.7,145.7c-37.9,31.9-85,53-133.8,62.7
						c-55.7,11.1-113.5,8.1-169.2-3.5c9.6-49.1,17-83.2,17-83.2s-10.3,8.8-27,21.3C1334.2,1290.8,1325,1256.1,1305.4,1228.7z"/>
					<path class="st24" d="M1413,1169.2c19.6,30.9,28.2,70.2,57,92.8c25.9,20.3,62.3,21.7,94.2,13.7c11.3-2.8,22.4-6.8,31.9-13.4
						c22.5-15.8,32.5-45.5,30-72.9c-2.5-27.4-15.6-52.8-31.6-75.2c-13.1-18.4-28.3-35.3-45.2-50.3c-67.6,47-131.9,64.5-131.9,64.5
						c-4.8,7.4-11.1,15.1-18.7,23.1C1404.2,1156.6,1408.9,1162.8,1413,1169.2z"/>
					<path class="st24" d="M1576.1,1147.4c-25.7,38.7-79.4,48.6-125.1,40.3c-23.4-4.3-45.9-12.2-68.2-20.7
						c14.8-13.7,26.8-26.7,34.6-38.7c0,0,77.9-21.2,152.5-79.7c6.7,7.8,12.1,16.8,15.5,26.6C1593.5,1099,1590,1126.5,1576.1,1147.4z
						"/>
					<path class="st9" d="M1542.2,1459.3c11.1-0.4,16.8,12.7,20,23.3c6.5,21.6,15.2,42.3,25.2,62.5c-5.5,1.4-11.1,2.3-17,2.4
						c0,0,0,0,0,0c-20.4-40.2-36.7-79.8-38.4-84.1C1535.2,1461.2,1538.5,1459.4,1542.2,1459.3z"/>
					<g>
						<path class="st23" d="M1350,996.2c-3.9,94.7,27.1,151.5,114.1,151.5s150.2-71.5,150.2-158.5s-63.2-156.6-150.2-156.6
							S1353.3,916.7,1350,996.2z"/>
					</g>
					<path class="st25" d="M1556.6,1079.3c-10.8-3.6-22-6.6-33.4-6.1c-12.4,0.6-24.2,5.2-35.8,9.5c-32.8,12.2-67.9,22.4-102.4,16.7
						c-6.6-1.1-13.1-2.8-19.5-4.7c17,34.1,48.5,52.9,98.6,52.9c49.1,0,90.7-22.8,117.6-58.4
						C1573.5,1085.5,1565.1,1082.2,1556.6,1079.3z"/>
					<path class="st25" d="M1412.7,1010.9c-7.2-3.7-16.3,2.2-19.1,9.8c-2.7,7.6-0.9,16,0.9,23.9l2.7,7.1c6.1,2.2,13.2-0.7,17.4-5.7
						s5.6-11.8,5.7-18.3C1420.3,1021.3,1418.4,1013.9,1412.7,1010.9z"/>
					<path class="st7" d="M1374.5,1010.1c2.1-11.6,14.3-19.7,26.1-19.2c11.8,0.5,22.4,8.3,28.4,18.5c3.3,5.6,5.4,11.9,5.8,18.4
						c1,17.5-12.7,34.7-30,37.7c1.3,7.2,8,14.8,13.9,19.1c5.9,4.3,12.6,7.2,18.9,10.9c23.7,13.5,41.5,36.9,48.4,63.3
						c27.1,1.9,52.5,12.7,77.7,2.8c6.6-2.5,13-6,17.3-11.6c5.6-7.3,6.6-17.1,8.2-26.2c8-45.7,35.8-88.1,33.3-134.4
						c-1.3-24.5-11.1-47.6-20.7-70.1c-12.7-29.8-25.5-59.5-38.2-89.3c-2.3,6.4-4.6,12.9-6.9,19.3c-27.6-13.1-58.6-26-89-29
						c-30.4-3-62.4,2.2-88,18.9c3.3,4.5,3.8,8.4,7.4,12.6c-43.2,17.7-70,62.2-81.2,107.5c11-11.4,22.8-22,35.3-31.8
						c-6.6,16.3-10.9,33.6-12.7,51.2c9.4-13.4,25.9-21.4,42.3-20.5C1365.1,974.7,1368.5,993.5,1374.5,1010.1z"/>
					<path class="st9" d="M1622.6,989.2c-1.3-24.1-10.8-46.9-20.3-69.1c-4.5,13.7-13,26.1-24.4,35c-16.5,12.8-38.6,17.9-59,13.6
						c5.3-4.3,10.6-8.7,16-13c-38.1,9-79.1,5-114.8-11c-12.3-5.5-24.3-12.5-37.6-14c6-2.2,11.7-5.2,16.9-9
						c-18.2-12.4-43-11.7-63.5-3.5c-6.9,2.8-13.4,6.3-19.7,10.2c-4.2,10-7.7,20.4-10.2,30.8c11-11.4,22.8-22,35.3-31.8
						c-6.6,16.3-10.9,33.6-12.7,51.2c9.4-13.4,25.9-21.4,42.3-20.5c-5.7,16.7-2.2,35.5,3.7,52.1c2.1-11.6,14.3-19.7,26.1-19.2
						c11.8,0.5,22.4,8.3,28.4,18.5c3.3,5.6,5.4,11.9,5.8,18.4c1,17.5-12.7,34.7-30,37.7c1.3,7.2,8,14.8,13.9,19.1
						c5.9,4.3,12.6,7.2,18.9,10.9c23.7,13.5,41.5,36.9,48.4,63.3c27.1,1.9,52.5,12.7,77.7,2.8c6.6-2.5,13-6,17.3-11.6
						c5.6-7.3,6.6-17.1,8.2-26.2C1597.3,1077.9,1625.1,1035.6,1622.6,989.2z"/>
					<g>
						<path class="st25" d="M1679.2,1078.8c-2.5-9.4-6.6-18.2-12-26.2c31.8-58.4,58.3-119.7,72.9-184.1c1.8,3.4,2.9,7.4,2.9,12
							c0.1,4.2,0,8.7-0.3,13.6c-3,47-31.3,128.7-61.3,195.2c0,0,0,0,0,0C1680.8,1085.8,1680.1,1082.3,1679.2,1078.8z"/>
						<path class="st24" d="M1629.9,1176.6c-4.3-13.7-10.1-27.9-7.4-42c1.7-8.6,6.4-16.2,10.9-23.7c11.7-19.1,23-38.5,33.8-58.3
							c5.4,8,9.5,16.8,12,26.2c0.9,3.5,1.6,7,2.2,10.5c0,0,0,0,0,0c-0.6,1.3-1.1,2.5-1.7,3.7c-0.4,0.8-0.7,1.5-1.1,2.3
							c-0.3,0.7-0.6,1.3-0.9,2c-0.4,0.8-0.7,1.6-1.1,2.3c-0.3,0.7-0.6,1.3-0.9,2c-0.5,1-0.9,1.9-1.4,2.9c-0.5,1-0.9,2-1.4,3
							c-0.3,0.7-0.7,1.4-1,2.2c-0.3,0.7-0.6,1.3-1,2c-0.3,0.7-0.7,1.4-1,2.1c-0.3,0.7-0.7,1.4-1,2.1c-0.4,0.7-0.7,1.5-1.1,2.2
							c-0.6,1.1-1.1,2.2-1.7,3.3c-0.3,0.6-0.6,1.3-0.9,1.9c-0.4,0.7-0.7,1.4-1.1,2.1c-0.3,0.6-0.6,1.3-1,1.9
							c-0.4,0.7-0.7,1.5-1.1,2.2c-0.3,0.5-0.6,1.1-0.8,1.6c-0.6,1.1-1.2,2.3-1.8,3.4c-0.3,0.5-0.6,1.1-0.8,1.6
							c-0.4,0.7-0.8,1.4-1.1,2.1c-0.3,0.5-0.6,1.1-0.8,1.6c-0.4,0.8-0.9,1.6-1.3,2.4c-0.2,0.4-0.4,0.8-0.7,1.2
							c-0.6,1.1-1.2,2.2-1.8,3.3c-0.2,0.4-0.5,0.9-0.7,1.3c-0.4,0.7-0.8,1.5-1.2,2.2c-0.2,0.4-0.5,0.9-0.7,1.3
							c-0.5,0.8-1,1.7-1.4,2.5c-0.2,0.3-0.3,0.5-0.5,0.8c-0.6,1-1.2,2.1-1.8,3.1c-0.2,0.3-0.4,0.7-0.6,1c-0.4,0.7-0.9,1.4-1.3,2.1
							c-0.2,0.3-0.4,0.7-0.6,1c-0.5,0.9-1,1.7-1.6,2.5c-0.1,0.1-0.2,0.3-0.3,0.4c-0.6,0.9-1.2,1.9-1.8,2.8c-0.2,0.3-0.4,0.6-0.5,0.8
							c-0.4,0.7-0.9,1.3-1.3,2c-0.2,0.3-0.4,0.6-0.5,0.8c-0.5,0.8-1.1,1.6-1.6,2.4c0,0.1-0.1,0.1-0.1,0.2c-0.6,0.8-1.1,1.6-1.7,2.4
							c-0.2,0.2-0.3,0.5-0.5,0.7c-0.4,0.6-0.8,1.1-1.2,1.7c-0.2,0.2-0.3,0.4-0.5,0.7c-0.4,0.5-0.8,1-1.2,1.6
							C1630.7,1179.4,1630.3,1178,1629.9,1176.6z"/>
					</g>
					<g>
						<path class="st25" d="M1330.1,1289.8c1.8,11.4,2.2,23,1.3,34.5c-47,35.3-144.8,100-206.1,80c-1.1-0.4-2.2-0.8-3.2-1.2
							c67.4-18.2,130.9-50.7,185-94.7C1314.6,1302.3,1322.2,1295.9,1330.1,1289.8z"/>
						<path class="st24" d="M1330.1,1289.8c18.4-14.2,38.2-26.2,60.9-26.6c6.5,43.3,3.3,87.1-3.7,130.5c-15.4-1.8-30.7-4.3-45.9-7.5
							c0,0,0,0,0,0c6.9-35.2,12.6-62.7,15.3-75.5c0-0.1,0-0.1,0-0.2c0.5-2.1,0.8-3.8,1.1-5.1c0-0.1,0-0.2,0.1-0.2
							c0.1-0.2,0.1-0.5,0.1-0.7c0,0,0,0,0,0c0.2-0.7,0.3-1.2,0.3-1.4c0-0.1,0-0.1,0-0.1s-6.8,5.8-18.3,14.7c0,0,0,0-0.1,0
							c-0.9,0.7-1.8,1.4-2.7,2.1c0,0,0,0,0,0c-0.9,0.7-1.9,1.4-2.9,2.2c0,0,0,0,0,0c-1,0.7-2,1.5-3,2.3c0,0,0,0,0,0
							C1332.3,1312.8,1331.9,1301.2,1330.1,1289.8z"/>
						<path class="st9" d="M1387.3,1393.7c-3.7,23-8.5,46-13.5,68.7c-8.3,37.6-17.2,75-26.5,112.3c-5.7-1.8-11.3-3.9-16.8-6.1
							c-6.5-2.6-13-5.6-19-9.2c0.3-1.9,0.5-3.7,0.8-5.6c0-0.1,0-0.1,0-0.2c0.3-1.7,0.5-3.4,0.8-5.2c0.1-0.4,0.1-0.7,0.2-1.1
							c0.2-1.4,0.4-2.9,0.7-4.3c0.1-0.4,0.1-0.9,0.2-1.3c0.2-1.4,0.4-2.8,0.6-4.2c0.1-0.4,0.1-0.8,0.2-1.3c0.2-1.5,0.5-3.1,0.7-4.6
							c0-0.3,0.1-0.5,0.1-0.8c0.6-3.7,1.2-7.4,1.8-11.1c0-0.1,0-0.2,0.1-0.4c0.3-1.7,0.5-3.3,0.8-5c0.1-0.4,0.1-0.8,0.2-1.2
							c0.2-1.4,0.5-2.8,0.7-4.3c0.1-0.4,0.1-0.9,0.2-1.3c0.2-1.4,0.5-2.9,0.7-4.3c0.1-0.4,0.1-0.8,0.2-1.2c0.3-1.7,0.6-3.3,0.8-5
							c0-0.1,0-0.2,0.1-0.3c0.6-3.7,1.2-7.4,1.9-11.1c0-0.3,0.1-0.5,0.1-0.8c0.3-1.5,0.5-3.1,0.8-4.6c0.1-0.4,0.1-0.7,0.2-1.1
							c0.2-1.4,0.5-2.8,0.7-4.2c0.1-0.4,0.1-0.8,0.2-1.3c0.3-1.5,0.5-2.9,0.8-4.4c0.1-0.3,0.1-0.6,0.2-0.9c1-5.4,1.9-10.8,2.9-16.1
							c0-0.2,0.1-0.4,0.1-0.6c0.3-1.5,0.5-3,0.8-4.5c0.1-0.3,0.1-0.7,0.2-1c0.3-1.4,0.5-2.8,0.8-4.3c0.1-0.3,0.1-0.6,0.2-0.9
							c0.3-1.5,0.6-3,0.8-4.5c0-0.2,0.1-0.4,0.1-0.6c1-5.2,1.9-10.3,2.9-15.3c0-0.2,0.1-0.4,0.1-0.6c0.3-1.5,0.6-3,0.8-4.4
							c0-0.2,0.1-0.4,0.1-0.6c0.3-1.5,0.6-3,0.8-4.4c0-0.1,0.1-0.3,0.1-0.4c1.6-8.3,3.1-16.3,4.6-23.9c0,0,0,0,0,0
							C1356.5,1389.4,1371.9,1391.9,1387.3,1393.7z"/>
					</g>
				</g>
				<path class="st5" d="M1426.7,1175.8c14.2,15.1,24.8,33.6,40.3,47.3c21.2,18.6,51.2,26.7,78.9,21.4c27.7-5.4,52.4-24.2,65.1-49.4
					c9.8-19.5,12.4-41.7,12.6-63.5c0.3-31.2,29.6-60.1,4.9-79c-5.1-3.9-14.8-17.9-13.5-11.6c8.7,43.3-94.2,79.2-119.6,84.9
					c-17.4,3.9-35.4-2.1-52.3-7.8c-16.9-5.7-35.1-11.3-52.4-6.7c-16.8,4.5-24.1,42.5-7.8,55.5c6.4,5.1,10.2-13.4,17.9-10.1
					C1410.6,1161.1,1419.4,1168,1426.7,1175.8z"/>
				<path class="st26" d="M1410,1120.7c10.9,0.8,20.9,6.1,31.2,9.7c22.6,7.8,47.6,7.1,70.8,1.2c23.2-5.9,44.9-16.8,65.5-29
					c12.6-7.5,25.1-15.6,34.8-26.6c6.4-7.3,11.5-15.9,14.1-25.2c-5.2-5.2-12.6-15.3-11.5-9.8c8.7,43.3-94.2,79.2-119.6,84.9
					c-17.4,3.9-35.4-2.1-52.3-7.8c-16.9-5.7-35.1-11.3-52.4-6.7c-9.5,2.6-16,15.8-16.8,29.2C1381,1128.2,1395.4,1119.6,1410,1120.7z
					"/>
			</g>
			<path class="st13" d="M1482,617.5c0,0-17.5,55,7.6,66.8c25.1,11.8,57.9-14.4,65.6-52.1L1482,617.5z"/>
		</g>
		<path class="st1" d="M1795.1,1207c-0.9-0.9-1.9-1.5-3.1-1.8c-1.2-0.3-2.5-0.3-3.7,0c-1.2,0.2-2.5,0.4-3.7,0.6
			c-0.5,0.2-1,0.4-1.5,0.6c-0.7,0.4-1.3,0.9-1.8,1.6c-0.8,1.1-1.4,2.5-1.4,3.9c0.1,1.1,0.3,2.2,0.9,3.2c0.7,1.2,2.4,2.7,3.8,2.9
			c1.2,0.2,2.5,0.4,3.7,0.6c1.2,0.3,2.5,0.3,3.7,0c1.2-0.3,2.2-0.9,3.1-1.8c1.3-1.4,2-3,2-4.9
			C1797.1,1210.2,1796.3,1208.3,1795.1,1207z"/>
		<path class="st1" d="M1766.9,1294.1c-8.8,0-8.8,13.7,0,13.7C1775.7,1307.8,1775.7,1294.1,1766.9,1294.1z"/>
		<path class="st1" d="M1821.1,1327.8c-10.3,0-10.3,16,0,16C1831.4,1343.8,1831.4,1327.8,1821.1,1327.8z"/>
		<path class="st1" d="M1837,1270c0-2.1-0.9-4.3-2.4-5.8c-1.4-1.4-3.7-2.5-5.8-2.4c-2.1,0.1-4.3,0.8-5.8,2.4
			c-1.5,1.6-2.4,3.6-2.4,5.8c0,1.4,0,2.7,0.3,4.1c0.3,1.2,1,2.4,1.5,3.5c1,2.3,4,3.7,6.4,3.7c2.4,0,5.3-1.4,6.4-3.7
			c0.5-1.1,1.2-2.3,1.5-3.5C1837,1272.7,1837,1271.4,1837,1270z"/>
		<path class="st1" d="M457.6,1271.6c-1.2,0.4-2.4,0.7-3.6,1.1c-2.1,0.7-3.9,2.7-3.8,5c0.1,2.4,1.6,4.3,3.8,5
			c1.2,0.4,2.4,0.7,3.6,1.1c4,1.3,8.1-2.1,8.1-6.1C465.7,1273.7,461.6,1270.3,457.6,1271.6z"/>
		<path class="st1" d="M436.1,1325.1c-8.7,0-8.7,13.5,0,13.5C444.8,1338.6,444.8,1325.1,436.1,1325.1z"/>
		<path class="st1" d="M503.8,1368.7c-1.4-1.4-3.7-2.5-5.8-2.4c-2.1,0.1-4.3,0.8-5.8,2.4c-1.5,1.6-2.4,3.6-2.4,5.8v3.9
			c0,2.1,0.9,4.3,2.4,5.8c1.4,1.4,3.7,2.5,5.8,2.4c2.1-0.1,4.3-0.8,5.8-2.4c1.5-1.6,2.4-3.6,2.4-5.8v-3.9
			C506.2,1372.4,505.3,1370.2,503.8,1368.7z"/>
		<path class="st1" d="M529,1306c-8.5,0-8.5,13.2,0,13.2C537.5,1319.2,537.5,1306,529,1306z"/>
	</g>
</g>
</svg>
